<?xml version="1.0" encoding="UTF-8"?>
<svg version="1.1" viewBox="0 0 400 400" xmlns="http://www.w3.org/2000/svg">
<path d="m181.94 218.89c-8.9115-0.0505-13.557-0.0688-16.129 0.0195-1.2859 0.0442-2.0535 0.11549-2.5762 0.22266-0.52266 0.10717-0.80213 0.25045-1.1094 0.43945-0.37525 0.23075-0.69634 0.50223-0.96679 0.80274-0.27046 0.30051-0.48882 0.62891-0.65625 0.97851-0.16744 0.3496-0.28341 0.71963-0.34961 1.0977-0.0662 0.37802-0.084 0.76461-0.0508 1.1504 0.0333 0.38578 0.11712 0.76971 0.24804 1.1426s0.3103 0.73493 0.53711 1.0742 0.50135 0.65636 0.82227 0.9414 0.68831 0.53792 1.1016 0.74805l1.793 0.91211 17.201-0.11133c8.251-0.0535 12.565-0.0898 14.984-0.21094 1.2097-0.0606 1.9454-0.14204 2.4629-0.25781 0.51748-0.11576 0.81659-0.26639 1.1523-0.46289 0.3225-0.18862 0.61106-0.40663 0.86719-0.64844 0.25613-0.2418 0.47983-0.50743 0.66797-0.79101 0.18814-0.28359 0.3424-0.58447 0.46093-0.89844 0.11854-0.31397 0.20074-0.64164 0.24805-0.97461 0.0473-0.33297 0.0587-0.67115 0.0332-1.0117s-0.0875-0.68276-0.1875-1.0195-0.238-0.66865-0.41406-0.99023c-0.17606-0.32159-0.39078-0.63274-0.64453-0.92774l-0.96094-1.1191z" fill="#808080" stroke="#000" stroke-linecap="round" stroke-linejoin="round"/>
<path d="m181.69 217.49c-4.6255-0.01-9.2616 0.0508-12.883 0.18555-1.8106 0.0674-3.3668 0.15351-4.541 0.25781s-1.9672 0.22739-2.248 0.36914c-0.48825 0.24625-0.91509 0.55644-1.2812 0.91406-0.36616 0.35763-0.67193 0.76254-0.91601 1.2012-0.24409 0.43863-0.42681 0.91112-0.54883 1.4004-0.12202 0.48926-0.18363 0.99633-0.1836 1.5059 4e-5 0.50953 0.0615 1.0201 0.1836 1.5195 0.12207 0.49942 0.30472 0.98637 0.54883 1.4453 0.2441 0.45895 0.54989 0.8912 0.91601 1.2793 0.36612 0.38809 0.79313 0.73265 1.2812 1.0195 0.26888 0.15787 1.0432 0.29552 2.1953 0.41406 1.1521 0.11854 2.6817 0.2177 4.4648 0.29688 3.5663 0.15834 8.1435 0.23765 12.721 0.23828 4.5772 6.2e-4 9.156-0.077 12.727-0.23438 1.7853-0.0787 3.3174-0.17665 4.4727-0.29492s1.9339-0.25619 2.207-0.41406c0.4895-0.28288 0.91946-0.619 1.291-0.99414 0.37155-0.37515 0.6846-0.7892 0.9375-1.2305s0.44654-0.90937 0.58008-1.3906c0.13353-0.48125 0.20723-0.97756 0.2207-1.4726 0.0135-0.4951-0.0333-0.98987-0.14063-1.4727-0.1073-0.48279-0.27511-0.95215-0.5039-1.3965-0.22879-0.44434-0.52012-0.86245-0.8711-1.2422s-0.76245-0.72077-1.2363-1.0098c-0.23413-0.14275-0.98587-0.26983-2.125-0.3789-1.1391-0.10908-2.6659-0.20053-4.4531-0.27539-3.5745-0.14972-8.189-0.23061-12.814-0.24024zm0.25 1.4062 18.535 0.10547 0.96094 1.1191c0.25375 0.295 0.46847 0.60615 0.64453 0.92774 0.17606 0.32158 0.31408 0.65346 0.41406 0.99023 0.1 0.33677 0.16198 0.67896 0.1875 1.0195 0.0255 0.34057 0.0141 0.67875-0.0332 1.0117s-0.12951 0.66064-0.24805 0.97461c-0.11853 0.31397-0.27279 0.61485-0.46093 0.89844-0.18814 0.28358-0.41184 0.54921-0.66797 0.79101-0.25613 0.24181-0.54469 0.45982-0.86719 0.64844-0.33575 0.1965-0.63486 0.34713-1.1523 0.46289-0.51749 0.11577-1.2532 0.19725-2.4629 0.25781-2.4194 0.12113-6.7334 0.15744-14.984 0.21094l-17.201 0.11133-1.793-0.91211c-0.41325-0.21013-0.78064-0.46301-1.1016-0.74805s-0.59546-0.60211-0.82227-0.9414-0.40619-0.70135-0.53711-1.0742-0.21479-0.7568-0.24804-1.1426c-0.0333-0.38578-0.0154-0.77237 0.0508-1.1504 0.0662-0.37803 0.18217-0.74806 0.34961-1.0977 0.16743-0.3496 0.38579-0.678 0.65625-0.97851 0.27045-0.30051 0.59154-0.57199 0.96679-0.80274 0.30725-0.189 0.58672-0.33228 1.1094-0.43945 0.52265-0.10717 1.2903-0.17847 2.5762-0.22266 2.5718-0.0884 7.2174-0.07 16.129-0.0195z" fill-opacity="0" stroke="#000" stroke-linecap="round" stroke-linejoin="round"/>
<path d="m174.26 190.13c-4.0824 9e-3 -6.7479 0.0414-8.5273 0.11914-0.88972 0.0388-1.5575 0.0896-2.0703 0.1543-0.51278 0.0647-0.87031 0.14383-1.1387 0.24023-0.26836 0.0964-0.44703 0.20989-0.60351 0.34375-0.15648 0.13387-0.29163 0.28772-0.46875 0.46485-0.323 0.323-0.58374 0.6779-0.78906 1.0527-0.20533 0.37483-0.35511 0.77039-0.44922 1.1738-0.0941 0.40344-0.13368 0.81383-0.12305 1.2226 0.0106 0.40883 0.0727 0.81604 0.18164 1.207 0.10891 0.391 0.26412 0.76723 0.46484 1.1172 0.20072 0.34996 0.44636 0.6733 0.73243 0.95899s0.61356 0.53226 0.97851 0.73047c0.36496 0.1982 0.76771 0.34804 1.2051 0.43554 0.42125 0.0842 1.5641 0.15128 3.2441 0.20313 1.6801 0.0518 3.8963 0.0888 6.4668 0.11133 5.1411 0.045 11.696 0.0325 18.189-0.0215s12.924-0.15079 17.822-0.27929c2.4492-0.0642 4.5156-0.13657 6.0137-0.21485 1.4981-0.0783 2.4288-0.1627 2.6074-0.25195 0.35562-0.17763 0.67818-0.3952 0.9668-0.64649 0.28861-0.25129 0.54339-0.53646 0.76172-0.84375 0.21832-0.30728 0.40015-0.6368 0.54492-0.98242s0.25237-0.70598 0.32031-1.0723c0.0679-0.36628 0.0961-0.73815 0.084-1.1074-0.0122-0.36927-0.0646-0.73719-0.16015-1.0918-0.0956-0.3546-0.23382-0.69727-0.41602-1.0195s-0.40756-0.62424-0.67968-0.89649l-1.0391-1.0391-27.092-0.0488c-7.4455-0.0135-12.945-0.0285-17.027-0.0195z" fill="#808080" stroke="#000" stroke-linecap="round" stroke-linejoin="round"/>
<path d="m191.65 188.79c-6.6469-0.0396-13.34-0.0347-18.557 0.0254-2.6081 0.03-4.8466 0.0745-6.5254 0.13281-1.6788 0.0583-2.7976 0.13183-3.166 0.22071-0.63387 0.153-1.2066 0.39615-1.7129 0.71093s-0.94588 0.70085-1.3184 1.1367c-0.37248 0.43588-0.67782 0.92122-0.91016 1.4375-0.23233 0.51628-0.39261 1.0631-0.47851 1.6191s-0.0961 1.1208-0.0293 1.6758 0.21167 1.0999 0.4375 1.6133c0.22584 0.51337 0.53268 0.9967 0.92383 1.4277s0.86498 0.80919 1.4277 1.1172c0.26788 0.14662 1.3404 0.27438 3.0137 0.38086 1.6732 0.10648 3.9484 0.19247 6.623 0.25976 5.3492 0.13458 12.296 0.19222 19.227 0.17578 6.9303-0.0164 13.844-0.10778 19.123-0.26757 2.6395-0.0799 4.8696-0.17672 6.4902-0.29102 0.81033-0.0571 1.4694-0.11802 1.9492-0.18359 0.47985-0.0656 0.78198-0.13511 0.88086-0.20899 0.49162-0.367 0.91859-0.77022 1.2832-1.1992 0.3646-0.42899 0.66613-0.88408 0.9043-1.3535 0.23816-0.46943 0.41308-0.95311 0.52539-1.4414 0.1123-0.48829 0.1614-0.9812 0.14843-1.4668-0.013-0.48559-0.0889-0.96445-0.22656-1.4258-0.13766-0.46132-0.33588-0.90482-0.59766-1.3203-0.26177-0.41549-0.5854-0.8023-0.9707-1.1504s-0.83355-0.65689-1.3418-0.91602c-0.18087-0.0922-1.1357-0.17833-2.6738-0.25586-1.5382-0.0775-3.6595-0.14649-6.1738-0.20703-5.0287-0.12107-11.629-0.20653-18.275-0.24609zm-17.385 1.3379c4.0824-9e-3 9.5818 6e-3 17.027 0.0195l27.092 0.0488 1.0391 1.0391c0.27212 0.27225 0.49748 0.57423 0.67968 0.89649s0.32047 0.66493 0.41602 1.0195c0.0955 0.3546 0.14799 0.72252 0.16015 1.0918 0.0122 0.36928-0.016 0.74115-0.084 1.1074-0.0679 0.36628-0.17554 0.72664-0.32031 1.0723s-0.3266 0.67514-0.54492 0.98242c-0.21833 0.30729-0.47311 0.59246-0.76172 0.84375-0.28862 0.25129-0.61118 0.46886-0.9668 0.64649-0.17862 0.0893-1.1093 0.17367-2.6074 0.25195-1.4981 0.0783-3.5644 0.1506-6.0137 0.21485-4.8984 0.1285-11.329 0.22529-17.822 0.27929s-13.048 0.0665-18.189 0.0215c-2.5705-0.0225-4.7867-0.0595-6.4668-0.11133-1.68-0.0518-2.8229-0.11888-3.2441-0.20313-0.43737-0.0875-0.84012-0.23734-1.2051-0.43554-0.36495-0.19821-0.69244-0.44478-0.97851-0.73047s-0.53171-0.60903-0.73243-0.95899c-0.20072-0.34995-0.35593-0.72618-0.46484-1.1172s-0.17101-0.79821-0.18164-1.207c-0.0106-0.40882 0.0289-0.81921 0.12305-1.2226 0.0941-0.40344 0.24389-0.799 0.44922-1.1738 0.20532-0.37483 0.46606-0.72973 0.78906-1.0527 0.17712-0.17713 0.31227-0.33098 0.46875-0.46485 0.15648-0.13386 0.33515-0.24735 0.60351-0.34375 0.26837-0.0964 0.6259-0.17551 1.1387-0.24023 0.51277-0.0647 1.1806-0.11546 2.0703-0.1543 1.7794-0.0777 4.445-0.11022 8.5273-0.11914z" fill-opacity="0" stroke="#000" stroke-linecap="round" stroke-linejoin="round"/>
<path d="m61.5 165.67c-0.3856-2e-3 -0.76327 0.05-1.123 0.15235-0.35977 0.10231-0.70295 0.25432-1.0215 0.45117-0.31853 0.19684-0.61118 0.43885-0.87305 0.7207s-0.49185 0.6036-0.68164 0.96094c-0.18979 0.35733-0.34107 0.75052-0.44336 1.1738-0.10229 0.4233-0.15687 0.87767-0.15625 1.3574 5e-4 0.4285 0.0169 0.78119 0.0781 1.123s0.1685 0.6732 0.35156 1.0566c0.36612 0.76687 1.0373 1.7448 2.2578 3.4473 0.60163 0.839 1.1229 1.7156 1.5645 2.623 0.44154 0.90746 0.802 1.8456 1.084 2.8066s0.48449 1.9456 0.60742 2.9453 0.16645 2.0155 0.13086 3.0391c-0.0356 1.0235-0.15015 2.0535-0.34375 3.0859-0.1936 1.0324-0.46532 2.0673-0.81641 3.0938-0.35108 1.0265-0.78101 2.0452-1.2891 3.0508-0.50805 1.0056-1.0953 1.9969-1.7598 2.9668-0.513 0.74887-0.89068 1.5042-1.1504 2.2422-0.25972 0.73794-0.4 1.4594-0.4375 2.1426-0.0375 0.68321 0.028 1.3274 0.18164 1.9121 0.15365 0.58469 0.39523 1.1104 0.70898 1.5527s0.6998 0.80234 1.1426 1.0586c0.22139 0.12813 0.45725 0.22935 0.70508 0.30274 0.24782 0.0734 0.50697 0.11769 0.77734 0.13086 0.27038 0.0132 0.5508-4e-3 0.83984-0.0566 0.28905-0.0525 0.5868-0.13999 0.89063-0.26368 0.30383-0.12368 0.613-0.28405 0.92773-0.48437s0.63529-0.44022 0.95704-0.72266c0.57306-0.50318 1.1077-1.0824 1.6055-1.7266s0.95812-1.354 1.3809-2.1191c0.42275-0.7651 0.80812-1.5851 1.1562-2.4512 0.34813-0.86607 0.65972-1.7776 0.9336-2.7246 0.27388-0.94704 0.51094-1.9295 0.71093-2.9375 0.2-1.008 0.36182-2.0409 0.48829-3.0898 0.12647-1.049 0.21622-2.1136 0.26953-3.1836 0.0533-1.07 0.0703-2.1458 0.0508-3.2168-0.0195-1.071-0.0741-2.1375-0.16602-3.1894-0.0919-1.0519-0.22078-2.0886-0.38476-3.1016-0.16399-1.0129-0.36393-2.0011-0.59961-2.9551-0.23569-0.95394-0.50743-1.8751-0.81446-2.75-0.30702-0.87494-0.64934-1.7045-1.0273-2.4805s-0.79162-1.4973-1.2402-2.1543c-0.44862-0.65697-0.93231-1.2496-1.4512-1.7676-0.51886-0.51798-1.0734-0.96132-1.6621-1.3203-0.391-0.23837-0.78759-0.41205-1.1836-0.52734s-0.79018-0.1721-1.1758-0.17383z" fill="#fff" stroke="#000" stroke-linecap="round" stroke-linejoin="round"/>
<path d="m61.371 164.49c-0.30074 9e-3 -0.60132 0.0484-0.90039 0.11914-0.29906 0.0708-0.5967 0.17305-0.89257 0.30664-0.29588 0.13359-0.58968 0.29822-0.88086 0.4961-0.4445 0.30212-0.83725 0.62864-1.1758 0.97656-0.33853 0.34792-0.62315 0.71765-0.85546 1.1055-0.23232 0.38782-0.41127 0.79498-0.53711 1.2168-0.12585 0.42181-0.19768 0.85868-0.2168 1.3086-0.0191 0.4499 0.0137 0.91267 0.10156 1.3848 0.0879 0.4721 0.23072 0.95303 0.42578 1.4414 0.19507 0.48838 0.44357 0.98366 0.7461 1.4824 0.30253 0.49877 0.65811 1.0007 1.0684 1.5039 0.65312 0.80125 1.2218 1.6453 1.707 2.5234 0.48528 0.87815 0.8874 1.7904 1.2051 2.7305 0.31767 0.94006 0.55084 1.9075 0.70117 2.8945 0.15032 0.98698 0.21795 1.9948 0.20117 3.0137-0.0168 1.0189-0.11714 2.0501-0.30078 3.0859s-0.45053 2.0755-0.80078 3.1133c-0.35026 1.0378-0.78416 2.073-1.3008 3.0976-0.51663 1.0247-1.1161 2.0385-1.7988 3.0352-0.47663 0.69575-0.85866 1.3924-1.1504 2.0762-0.29174 0.68376-0.49281 1.3561-0.60938 2.0039-0.11657 0.64783-0.14848 1.2714-0.0996 1.8594 0.0489 0.58799 0.17822 1.1403 0.38282 1.6445 0.20459 0.50422 0.48339 0.9609 0.83398 1.3574 0.35059 0.39652 0.7729 0.73314 1.2598 0.99804 0.48686 0.2649 1.0389 0.45706 1.6523 0.56641s1.2873 0.13458 2.0176 0.0644c0.45075-0.0433 0.89672-0.15804 1.334-0.33984s0.86708-0.43053 1.2871-0.73828 0.82944-0.67455 1.2285-1.0957c0.39907-0.42116 0.78772-0.89593 1.1621-1.418 0.37438-0.52204 0.73412-1.0908 1.0801-1.7012 0.34596-0.61036 0.67839-1.2631 0.99219-1.9492 0.6276-1.3723 1.1856-2.8841 1.6621-4.4844s0.87036-3.2878 1.166-5.0156c0.29566-1.7279 0.49323-3.4948 0.57812-5.25 0.0424-0.87759 0.0569-1.7535 0.041-2.6191-0.0159-0.86561-0.0608-1.7214-0.13867-2.5625-0.0779-0.84109-0.1884-1.6667-0.33204-2.4707-0.14363-0.80403-0.32007-1.5874-0.5332-2.3418-0.37112-1.3136-0.78101-2.5431-1.2207-3.6836-0.4397-1.1405-0.91003-2.1907-1.4062-3.1465s-1.0179-1.8166-1.5586-2.5762c-0.54069-0.75953-1.1007-1.419-1.6738-1.9707-0.57313-0.55165-1.1584-0.99593-1.752-1.3281-0.5935-0.33219-1.195-0.55122-1.7969-0.65235-0.30092-0.0506-0.6016-0.0719-0.90235-0.0625zm0.12891 1.1816c0.3856 2e-3 0.77977 0.0585 1.1758 0.17383 0.39601 0.11529 0.7926 0.28897 1.1836 0.52734 0.58874 0.359 1.1432 0.80234 1.6621 1.3203 0.51887 0.51798 1.0026 1.1106 1.4512 1.7676 0.44861 0.65696 0.86223 1.3783 1.2402 2.1543s0.72032 1.6055 1.0273 2.4805c0.30703 0.87494 0.57877 1.7961 0.81446 2.75 0.23568 0.95394 0.43562 1.9421 0.59961 2.9551 0.16398 1.0129 0.29285 2.0496 0.38476 3.1016 0.0919 1.0519 0.14653 2.1185 0.16602 3.1894 0.0195 1.071 3e-3 2.1468-0.0508 3.2168-0.0533 1.07-0.14306 2.1346-0.26953 3.1836-0.12647 1.049-0.28829 2.0818-0.48829 3.0898-0.19999 1.008-0.43705 1.9905-0.71093 2.9375-0.27388 0.94703-0.58547 1.8585-0.9336 2.7246-0.34813 0.86606-0.7335 1.6861-1.1562 2.4512-0.42274 0.7651-0.88314 1.475-1.3809 2.1191s-1.0324 1.2234-1.6055 1.7266c-0.32175 0.28244-0.64231 0.52234-0.95704 0.72266s-0.6239 0.36069-0.92773 0.48437c-0.30383 0.12369-0.60158 0.21116-0.89063 0.26368-0.28904 0.0525-0.56946 0.0698-0.83984 0.0566-0.27037-0.0132-0.52952-0.0575-0.77734-0.13086-0.24783-0.0734-0.48369-0.17461-0.70508-0.30274-0.44278-0.25625-0.82883-0.61622-1.1426-1.0586s-0.55533-0.96804-0.70898-1.5527c-0.15366-0.5847-0.21914-1.2289-0.18164-1.9121 0.0375-0.68322 0.17778-1.4046 0.4375-2.1426 0.25971-0.73795 0.63739-1.4933 1.1504-2.2422 0.6645-0.96987 1.2517-1.9612 1.7598-2.9668 0.50805-1.0056 0.93798-2.0243 1.2891-3.0508 0.35109-1.0265 0.62281-2.0613 0.81641-3.0938 0.1936-1.0324 0.30816-2.0624 0.34375-3.0859 0.0356-1.0235-8e-3 -2.0393-0.13086-3.0391-0.12293-0.99973-0.32544-1.9843-0.60742-2.9453s-0.64244-1.8992-1.084-2.8066c-0.44155-0.90746-0.96283-1.784-1.5645-2.623-1.2205-1.7025-1.8917-2.6804-2.2578-3.4473-0.18306-0.38344-0.29036-0.71478-0.35156-1.0566s-0.0776-0.69455-0.0781-1.123c-6.2e-4 -0.47975 0.054-0.93412 0.15625-1.3574 0.10229-0.42331 0.25357-0.8165 0.44336-1.1738 0.18979-0.35734 0.41977-0.67909 0.68164-0.96094s0.55452-0.52386 0.87305-0.7207c0.31853-0.19685 0.66171-0.34886 1.0215-0.45117 0.35978-0.10232 0.73745-0.15407 1.123-0.15235z" fill="#fff" fill-opacity=".85324" stroke="#000" stroke-linecap="round" stroke-linejoin="round"/>
<path d="m202.03 161.13c-9.5584 0.01-19.107 0.0766-26.381 0.19727-3.6369 0.0603-6.7054 0.13355-8.9219 0.2207-2.2165 0.0872-3.5806 0.18741-3.8106 0.30078-0.44775 0.22075-0.83973 0.49316-1.1738 0.80469-0.33409 0.31153-0.61127 0.66187-0.83203 1.0371s-0.38445 0.77561-0.49218 1.1875c-0.10774 0.41189-0.15927 0.83634-0.1543 1.2578 5e-3 0.42147 0.0662 0.84016 0.18359 1.2441 0.11736 0.40398 0.2901 0.79291 0.51953 1.1523s0.51624 0.69071 0.85743 0.97852c0.34118 0.28781 0.73682 0.53158 1.1894 0.7207 0.2535 0.106 1.6372 0.19985 3.8672 0.2793 2.23 0.0795 5.3074 0.14435 8.9492 0.19727 7.2836 0.10582 16.825 0.15839 26.367 0.1582s19.086-0.0522 26.369-0.1582c3.6418-0.053 6.7192-0.11976 8.9492-0.19922 2.23-0.0795 3.6137-0.17147 3.8672-0.27735 0.4305-0.17987 0.80603-0.42548 1.1289-0.71875 0.32287-0.29327 0.59334-0.6355 0.80859-1.0098 0.21525-0.37427 0.3748-0.78026 0.48242-1.2031 0.10763-0.42286 0.16211-0.86172 0.16211-1.3008s-0.0545-0.87792-0.16211-1.3008c-0.10762-0.42286-0.26717-0.82886-0.48242-1.2031-0.21525-0.37426-0.48572-0.71649-0.80859-1.0098-0.32288-0.29327-0.69841-0.53888-1.1289-0.71875-0.27-0.11275-1.6714-0.21052-3.918-0.29297-2.2465-0.0824-5.3392-0.14844-8.9961-0.20117-7.3138-0.10545-16.881-0.15252-26.439-0.14258z" fill="#808080" stroke="#000" stroke-linecap="round" stroke-linejoin="round"/>
<path d="m203.02 159.98c-9.516-0.0478-19.057-0.0469-26.381 0.0156-3.6618 0.0313-6.7704 0.0775-9.043 0.14063-2.2726 0.0631-3.7106 0.14443-4.0332 0.24218-0.6165 0.18688-1.1705 0.44951-1.6621 0.77344-0.49162 0.32393-0.91982 0.70913-1.2812 1.1367s-0.65689 0.89864-0.88281 1.3965c-0.22592 0.49785-0.38366 1.0219-0.46875 1.5566-0.0851 0.53472-0.0982 1.079-0.0371 1.6172 0.061 0.5382 0.19765 1.0698 0.41016 1.5781 0.21251 0.50827 0.50181 0.99254 0.87109 1.4375s0.81824 0.85097 1.3496 1.1992c0.1115 0.0731 0.51028 0.14191 1.1621 0.20703 0.65183 0.0651 1.5572 0.12663 2.6777 0.18359 2.2411 0.11392 5.3468 0.2106 9.0332 0.29102 7.3727 0.16082 17.063 0.25362 26.779 0.27343 9.7166 0.0198 19.46-0.0335 26.938-0.16406 3.7388-0.0653 6.9107-0.14929 9.2305-0.2539 2.3198-0.10462 3.7874-0.22988 4.1152-0.375 0.55762-0.24663 1.0474-0.56368 1.4668-0.9336 0.41944-0.36991 0.76974-0.79183 1.0508-1.25 0.28104-0.45816 0.49236-0.95152 0.63476-1.4629s0.21522-1.0408 0.21875-1.5703c4e-3 -0.52953-0.0636-1.0596-0.19922-1.5723-0.13557-0.51265-0.34033-1.008-0.61523-1.4688-0.2749-0.46072-0.61875-0.886-1.0332-1.2598-0.41446-0.37376-0.89888-0.69552-1.4531-0.94727-0.22125-0.10037-1.571-0.1938-3.7676-0.2793-2.1966-0.0855-5.2404-0.16268-8.8516-0.23046-7.2223-0.13558-16.712-0.23344-26.229-0.28125zm-0.98828 1.1465c9.5584-0.01 19.126 0.0371 26.439 0.14258 3.6569 0.0527 6.7496 0.11872 8.9961 0.20117 2.2465 0.0824 3.648 0.18022 3.918 0.29297 0.4305 0.17987 0.80603 0.42548 1.1289 0.71875 0.32287 0.29327 0.59334 0.6355 0.80859 1.0098 0.21525 0.37427 0.3748 0.78027 0.48242 1.2031 0.10763 0.42286 0.16211 0.86172 0.16211 1.3008s-0.0545 0.87792-0.16211 1.3008c-0.10762 0.42287-0.26717 0.82886-0.48242 1.2031-0.21525 0.37426-0.48572 0.71649-0.80859 1.0098-0.32288 0.29327-0.69841 0.53888-1.1289 0.71875-0.2535 0.10588-1.6372 0.19789-3.8672 0.27735-2.23 0.0795-5.3074 0.14619-8.9492 0.19922-7.2836 0.10604-16.827 0.15801-26.369 0.1582s-19.084-0.0524-26.367-0.1582c-3.6418-0.0529-6.7192-0.11782-8.9492-0.19727-2.23-0.0794-3.6137-0.1733-3.8672-0.2793-0.45263-0.18912-0.84827-0.43289-1.1894-0.7207-0.34119-0.28781-0.628-0.61909-0.85743-0.97852s-0.40217-0.74836-0.51953-1.1523-0.17862-0.82267-0.18359-1.2441c-5e-3 -0.42147 0.0466-0.84592 0.1543-1.2578 0.10773-0.41189 0.27142-0.81226 0.49218-1.1875s0.49794-0.72558 0.83203-1.0371c0.3341-0.31153 0.72608-0.58394 1.1738-0.80469 0.23-0.11337 1.594-0.21363 3.8106-0.30078 2.2165-0.0872 5.285-0.16037 8.9219-0.2207 7.2738-0.12068 16.822-0.18733 26.381-0.19727z" fill-opacity="0" stroke="#000" stroke-linecap="round" stroke-linejoin="round"/>
<path d="m79.51 147.36c-0.33722-7e-3 -0.67893 0.0246-1.0176 0.0937-0.33866 0.0691-0.67473 0.17566-1.0039 0.31836-0.32918 0.14269-0.65019 0.32112-0.95898 0.53516-0.30879 0.21403-0.60534 0.46296-0.88282 0.74609-0.27747 0.28313-0.53623 0.60117-0.77148 0.95117-0.342 0.50925-0.57384 0.97499-0.67578 1.4668-0.051 0.2459-0.0695 0.49747-0.0527 0.76562s0.0685 0.55125 0.15821 0.85938c0.1795 0.61625 0.5094 1.3303 1.0117 2.2129 0.50231 0.88256 1.1765 1.9339 2.043 3.2246 0.75987 1.1321 1.4746 2.2817 2.1426 3.4453s1.2892 2.3428 1.8652 3.5332c0.57608 1.1904 1.1077 2.393 1.5918 3.6055 0.48406 1.2125 0.92056 2.4342 1.3125 3.6641 0.39195 1.2298 0.73932 2.4666 1.0391 3.709s0.55229 2.4899 0.75976 3.7402c0.20747 1.2503 0.36927 2.5044 0.48438 3.7578 0.1151 1.2535 0.18437 2.5079 0.20703 3.7598 0.0226 1.2519-4.4e-4 2.5005-0.0703 3.7461-0.0699 1.2456-0.18712 2.4881-0.34961 3.7226-0.1625 1.2346-0.37175 2.4609-0.62696 3.6797-0.2552 1.2188-0.5563 2.4286-0.90429 3.627s-0.74273 2.3855-1.1836 3.5586c-0.44086 1.1731-0.92711 2.3334-1.4609 3.4766-0.53383 1.1431-1.1153 2.2685-1.7422 3.377s-1.2995 2.1985-2.0195 3.2676c-0.89775 1.3328-1.598 2.4472-2.1152 3.4023-0.51728 0.95516-0.85245 1.7521-1.0176 2.4492-0.0826 0.34856-0.12321 0.67205-0.12304 0.97852s0.0417 0.59567 0.12109 0.875c0.0794 0.27933 0.19655 0.54928 0.35156 0.8164 0.15502 0.26713 0.3471 0.53091 0.57422 0.80079 0.43738 0.51987 0.89702 0.90614 1.377 1.1582 0.23996 0.12603 0.48608 0.21794 0.73632 0.27734 0.25025 0.0594 0.50535 0.0851 0.76563 0.0781s0.52485-0.046 0.79492-0.11914c0.27007-0.0732 0.54459-0.17921 0.82422-0.31836 0.55925-0.27831 1.1384-0.6896 1.7344-1.2305 0.596-0.54088 1.209-1.212 1.8398-2.0137 0.63081-0.80169 1.2797-1.7322 1.9434-2.793 0.66368-1.0608 1.3425-2.2522 2.0371-3.5703 0.69462-1.3181 1.4053-2.7643 2.1289-4.3379 0.7945-1.728 1.5038-3.4981 2.1289-5.3027s1.1644-3.6433 1.6191-5.5059c0.45472-1.8626 0.82421-3.7485 1.1074-5.6504s0.48117-3.8196 0.5918-5.7422c0.11062-1.9226 0.1353-3.8508 0.0723-5.7754s-0.21339-3.8459-0.45117-5.7539c-0.23778-1.908-0.56296-3.803-0.97656-5.6758-0.4136-1.8728-0.91536-3.7241-1.5059-5.543-0.51525-1.587-1.2516-3.4083-2.1133-5.291-0.86166-1.8827-1.8491-3.8258-2.8652-5.6582-1.0161-1.8324-2.0624-3.5523-3.041-4.9883-0.48933-0.71799-0.96228-1.3659-1.4062-1.9199-0.44397-0.55399-0.8578-1.0146-1.2324-1.3613-0.26738-0.2475-0.55585-0.45415-0.85742-0.61914-0.30158-0.165-0.61656-0.28833-0.94141-0.37305-0.32485-0.0847-0.65888-0.13004-0.99609-0.13672z" fill="#fff" stroke="#000" stroke-linecap="round" stroke-linejoin="round"/>
<path d="m78.506 146.25c-0.50221 0.0808-1.0091 0.24255-1.5234 0.48242-0.62625 0.292-1.1768 0.60666-1.6543 0.94336-0.47747 0.33671-0.88203 0.69683-1.2109 1.082-0.32892 0.38521-0.58307 0.79494-0.76367 1.2324-0.18061 0.43748-0.28779 0.90292-0.32032 1.3965-0.0325 0.49356 0.01 1.0149 0.125 1.5684 0.11531 0.55342 0.30546 1.1388 0.56836 1.7559s0.59951 1.2666 1.0098 1.9512c0.41025 0.68452 0.8938 1.4024 1.4512 2.1582 0.91075 1.235 1.7684 2.5852 2.5664 4.0234 0.79804 1.4383 1.5351 2.966 2.209 4.5566 0.67392 1.5907 1.2839 3.2452 1.8223 4.9375 0.53838 1.6923 1.007 3.421 1.3984 5.1641 0.39144 1.743 0.70638 3.4992 0.93946 5.2422 0.23307 1.7429 0.38397 3.474 0.44726 5.166 0.0633 1.692 0.0378 3.3453-0.0801 4.9355-0.11789 1.5902-0.32817 3.1171-0.63867 4.5547-0.39325 1.8208-0.8349 3.5439-1.3301 5.1836-0.49517 1.6397-1.0449 3.1966-1.6543 4.6855-0.60944 1.4889-1.2796 2.909-2.0156 4.2774-0.73604 1.3684-1.5371 2.6849-2.4121 3.9629-0.57225 0.83587-1.0748 1.6222-1.5078 2.3633s-0.79773 1.436-1.0918 2.0879-0.51856 1.2616-0.67382 1.8301c-0.15527 0.56849-0.24116 1.0952-0.25782 1.5859-0.0166 0.49078 0.0364 0.94451 0.15821 1.3633 0.12176 0.41877 0.31227 0.80377 0.57226 1.1562 0.25999 0.35247 0.59025 0.67295 0.98828 0.96484 0.39803 0.29188 0.86452 0.55401 1.4004 0.79101 0.4405 0.19488 0.86501 0.34239 1.2774 0.43946 0.41233 0.0971 0.81248 0.14446 1.2051 0.13867 0.39259-6e-3 0.77693-0.064 1.1582-0.17773 0.38127-0.1137 0.75834-0.28311 1.1367-0.50977 0.37837-0.22666 0.75868-0.5108 1.1426-0.85547 0.38389-0.34466 0.77207-0.74907 1.1699-1.2168 0.79568-0.93545 1.6273-2.1221 2.5293-3.5801 0.80963-1.3089 1.5742-2.6242 2.291-3.9434 0.71683-1.3192 1.3858-2.6427 2.0098-3.9707 0.62396-1.328 1.2014-2.6605 1.7324-3.9961s1.017-2.6738 1.4551-4.0156c0.43804-1.3418 0.82883-2.6865 1.1738-4.0332s0.64266-2.6966 0.89454-4.0469c0.25187-1.3503 0.4585-2.7021 0.61718-4.0547 0.15869-1.3526 0.2705-2.7051 0.33594-4.0586 0.0654-1.3535 0.0845-2.7074 0.0566-4.0606s-0.10335-2.7052-0.22461-4.0566c-0.12125-1.3514-0.28921-2.7024-0.5039-4.0508-0.2147-1.3484-0.47501-2.6951-0.78321-4.0391-0.3082-1.344-0.66463-2.6851-1.0664-4.0234-0.40178-1.3383-0.8503-2.6726-1.3457-4.0039s-1.0378-2.6595-1.627-3.9824-1.2234-2.6418-1.9062-3.9551c-0.63175-1.2149-1.2418-2.3257-1.832-3.3359-0.59024-1.0102-1.1624-1.9203-1.7188-2.7324s-1.0967-1.526-1.627-2.1465c-0.53023-0.62054-1.0488-1.1466-1.5606-1.582-0.51172-0.43544-1.0167-0.78027-1.5176-1.0371-0.50088-0.25685-0.99838-0.42696-1.4961-0.51172-0.49771-0.0848-0.99584-0.0847-1.498-4e-3zm1.0039 1.1055c0.33721 7e-3 0.67124 0.052 0.99609 0.13672 0.32485 0.0847 0.63983 0.20805 0.94141 0.37305 0.30157 0.16499 0.59004 0.37164 0.85742 0.61914 0.37462 0.34675 0.78845 0.80733 1.2324 1.3613 0.44397 0.554 0.91692 1.2019 1.4062 1.9199 0.97865 1.436 2.0249 3.1559 3.041 4.9883 1.0161 1.8324 2.0036 3.7755 2.8652 5.6582 0.86165 1.8827 1.598 3.704 2.1133 5.291 0.5905 1.8189 1.0923 3.6702 1.5059 5.543 0.4136 1.8728 0.73878 3.7678 0.97656 5.6758 0.23778 1.908 0.38814 3.8293 0.45117 5.7539 0.063 1.9246 0.0384 3.8528-0.0723 5.7754-0.11063 1.9226-0.30859 3.8403-0.5918 5.7422s-0.6527 3.7878-1.1074 5.6504c-0.45472 1.8626-0.99399 3.7012-1.6191 5.5059s-1.3344 3.5747-2.1289 5.3027c-0.72362 1.5736-1.4343 3.0198-2.1289 4.3379-0.69463 1.3181-1.3734 2.5096-2.0371 3.5703-0.66369 1.0608-1.3126 1.9913-1.9434 2.793-0.63081 0.80168-1.2438 1.4728-1.8398 2.0137-0.596 0.54087-1.1751 0.95216-1.7344 1.2305-0.27963 0.13915-0.55415 0.24517-0.82422 0.31836-0.27007 0.0732-0.53464 0.11214-0.79492 0.11914s-0.51538-0.0187-0.76563-0.0781c-0.25024-0.0594-0.49636-0.15131-0.73632-0.27734-0.47994-0.25206-0.93958-0.63833-1.377-1.1582-0.22712-0.26988-0.4192-0.53366-0.57422-0.80079-0.15501-0.26712-0.2722-0.53707-0.35156-0.8164-0.0794-0.27933-0.12092-0.56853-0.12109-0.875s0.0405-0.62996 0.12304-0.97852c0.16513-0.69712 0.5003-1.4941 1.0176-2.4492 0.51728-0.95515 1.2175-2.0696 2.1152-3.4023 0.72-1.0691 1.3927-2.1591 2.0195-3.2676s1.2084-2.2338 1.7422-3.377c0.53382-1.1431 1.0201-2.3035 1.4609-3.4766 0.44087-1.1731 0.83561-2.3603 1.1836-3.5586s0.64909-2.4082 0.90429-3.627c0.25521-1.2188 0.46446-2.4451 0.62696-3.6797 0.16249-1.2346 0.27973-2.4771 0.34961-3.7226 0.0699-1.2456 0.093-2.4942 0.0703-3.7461s-0.0919-2.5063-0.20703-3.7598c-0.11511-1.2535-0.27691-2.5075-0.48438-3.7578-0.20747-1.2503-0.46001-2.4978-0.75976-3.7402s-0.64712-2.4792-1.0391-3.709c-0.39194-1.2298-0.82844-2.4516-1.3125-3.6641-0.48405-1.2125-1.0157-2.415-1.5918-3.6055-0.57608-1.1904-1.1972-2.3696-1.8652-3.5332s-1.3827-2.3132-2.1426-3.4453c-0.8665-1.2908-1.5407-2.342-2.043-3.2246-0.50232-0.88256-0.83222-1.5966-1.0117-2.2129-0.0898-0.30813-0.1414-0.59123-0.15821-0.85938-0.0168-0.26815 2e-3 -0.51972 0.0527-0.76562 0.10194-0.49181 0.33378-0.95755 0.67578-1.4668 0.23525-0.35 0.49401-0.66804 0.77148-0.95117 0.27748-0.28313 0.57403-0.53206 0.88282-0.74609 0.30879-0.21404 0.6298-0.39247 0.95898-0.53516 0.32918-0.1427 0.66525-0.24924 1.0039-0.31836 0.33865-0.0691 0.68036-0.10043 1.0176-0.0937z" fill="#fff" fill-opacity=".85324" stroke="#000" stroke-linecap="round" stroke-linejoin="round"/>
<path d="m151.69 119.43c-1.0113 0.023-1.9317 0.0845-2.6074 0.18946-0.62088 0.0966-1.237 0.23904-1.8438 0.42382-0.60671 0.18478-1.2038 0.41251-1.7891 0.67969s-1.1581 0.57414-1.7148 0.91797-1.0983 0.72395-1.6191 1.1387c-0.52088 0.41472-1.0222 0.86389-1.5 1.3438s-0.93181 0.99006-1.3594 1.5293c-0.42756 0.53924-0.82718 1.1063-1.1973 1.6992-0.37008 0.59287-0.71025 1.2108-1.0156 1.8516l-1.2383 2.6016-0.11133 52.799c-0.0375 17.899-0.0304 31.326 0.0215 40.514 0.0259 4.594 0.0625 8.1281 0.11133 10.633 0.0488 2.5048 0.10964 3.9786 0.18164 4.4531 0.11412 0.75175 0.27124 1.4886 0.46875 2.207 0.1975 0.71843 0.436 1.42 0.71289 2.0996 0.27688 0.67959 0.59109 1.3374 0.94336 1.9727 0.35226 0.63524 0.74236 1.2466 1.166 1.832 0.42366 0.58537 0.882 1.1458 1.373 1.6758s1.0139 1.0309 1.5684 1.5c0.55444 0.46909 1.1401 0.90591 1.7539 1.3086 0.61385 0.40268 1.2565 0.77082 1.9258 1.1016l3.041 1.5039 51.162 0.11524c13.509 0.0305 23.733 0.052 31.527 0.0371 7.7945-0.0149 13.161-0.0658 16.963-0.17579 1.9008-0.055 3.4093-0.12483 4.6348-0.21289 1.2255-0.0881 2.1682-0.1949 2.9336-0.32226 0.76539-0.12737 1.3544-0.27438 1.875-0.44727 0.52057-0.17289 0.9719-0.37108 1.4629-0.5957 0.51012-0.23363 1.0222-0.51932 1.5273-0.85156s1.004-0.71162 1.4922-1.127c0.48813-0.41533 0.96487-0.86669 1.4238-1.3496 0.45896-0.48291 0.90071-0.99628 1.3184-1.5312 0.41766-0.53496 0.81155-1.0926 1.1758-1.6641 0.36423-0.5715 0.69739-1.1575 0.99609-1.75 0.29869-0.59252 0.56217-1.191 0.7832-1.7891s0.4-1.1952 0.53125-1.7832c0.0935-0.4185 0.1736-2.4237 0.24024-5.6152 0.0666-3.1915 0.11941-7.5701 0.16015-12.738 0.0815-10.336 0.11202-23.83 0.0957-37.295-0.0163-13.465-0.0792-26.9-0.18555-37.123-0.0532-5.1113-0.11714-9.4192-0.19141-12.525-0.0743-3.1062-0.15758-5.0117-0.25195-5.3164-0.31013-1.002-0.67793-1.9397-1.1016-2.8125-0.42363-0.87277-0.90465-1.6812-1.4434-2.4258-0.53871-0.74455-1.1337-1.4237-1.7891-2.041-0.65537-0.61733-1.3709-1.173-2.1445-1.6641-0.77359-0.4911-1.6066-0.9193-2.5-1.2852-0.89339-0.36586-1.8466-0.66854-2.8613-0.91016-1.0148-0.24161-2.0908-0.42069-3.2285-0.53906s-2.3374-0.17575-3.5996-0.17187c-1.9385 6e-3 -3.3799 1e-3 -4.4512 0.0762-0.53563 0.0375-0.97899 0.095-1.3457 0.18359-0.36672 0.0886-0.65697 0.20689-0.88672 0.36914s-0.39872 0.36849-0.52344 0.62695c-0.12472 0.25847-0.20424 0.57005-0.25586 0.94727-0.10325 0.75444-0.0932 1.7681-0.0957 3.1328-2e-3 1.164-0.0892 2.2576-0.25391 3.2774-0.16473 1.0197-0.4067 1.9665-0.71289 2.8418-0.30619 0.87527-0.67709 1.6776-1.1035 2.4082-0.42642 0.73066-0.90815 1.3887-1.4336 1.9746-0.52544 0.58589-1.094 1.1-1.6973 1.541-0.60324 0.44098-1.2406 0.80957-1.9004 1.1055-0.65981 0.2959-1.3439 0.51925-2.0391 0.66992s-1.402 0.2291-2.1113 0.23438c-0.70931 5e-3 -1.4208-0.0629-2.123-0.20313-0.70224-0.14026-1.3944-0.3527-2.0684-0.63867-0.67394-0.28597-1.3287-0.64434-1.9531-1.0762s-1.2198-0.93778-1.7734-1.5156c-0.55369-0.57785-1.0656-1.2291-1.5274-1.9531-0.46173-0.72403-0.87214-1.5203-1.2207-2.3906s-0.63544-1.8152-0.84961-2.832-0.3555-2.106-0.41406-3.2695c-0.0685-1.3602-0.11916-2.3774-0.20508-3.1387-0.043-0.38065-0.0942-0.69767-0.16211-0.96094-0.0679-0.26327-0.15135-0.47315-0.25781-0.64062-0.10647-0.16747-0.23576-0.29348-0.39453-0.38672-0.15878-0.0932-0.3475-0.15473-0.57227-0.19531-0.44955-0.0812-1.046-0.0781-1.8418-0.0781-0.796 0-1.3953 6e-3 -1.8516 0.0996-0.22811 0.0468-0.41938 0.11512-0.58203 0.2168-0.16265 0.10167-0.29606 0.23659-0.40625 0.41406s-0.19882 0.39767-0.26953 0.67187c-0.0707 0.27421-0.12374 0.60225-0.16797 0.99414-0.0885 0.7838-0.13677 1.8229-0.19727 3.2031-0.0509 1.1608-0.18259 2.2487-0.38281 3.2617s-0.46909 1.9528-0.79883 2.8184c-0.32974 0.86553-0.71876 1.6566-1.1582 2.375s-0.92968 1.3639-1.459 1.9355c-0.52931 0.57164-1.0979 1.0689-1.6973 1.4942-0.59936 0.4252-1.2293 0.77752-1.8789 1.0566-0.64957 0.27912-1.32 0.48576-2 0.61914-0.67997 0.13338-1.37 0.19365-2.0605 0.18164-0.69055-0.012-1.3812-0.0968-2.0625-0.25391-0.6813-0.15706-1.3536-0.38573-2.0059-0.6875-0.65222-0.30177-1.2834-0.67692-1.8867-1.123-0.60332-0.44613-1.1783-0.96454-1.7129-1.5547-0.53459-0.59015-1.0286-1.2525-1.4746-1.9863s-0.84398-1.5389-1.1816-2.416c-0.33767-0.87713-0.61671-1.8256-0.82617-2.8457-0.20947-1.0201-0.34872-2.1107-0.41016-3.2734-0.0675-1.2765-0.12253-2.24-0.2168-2.9668-0.0471-0.36343-0.10421-0.66901-0.17773-0.92383-0.0735-0.25483-0.16431-0.45957-0.27735-0.625-0.11303-0.16544-0.24838-0.29146-0.41406-0.38672-0.16567-0.0953-0.36035-0.15883-0.59179-0.20313-0.4629-0.0886-1.0703-0.0957-1.875-0.0957-0.7775 0-1.3766 0.0224-1.8379 0.11914-0.23062 0.0484-0.42695 0.11416-0.59375 0.20703-0.16679 0.0929-0.30484 0.21235-0.41796 0.36328-0.11313 0.15094-0.20188 0.33409-0.27149 0.55664-0.0696 0.22256-0.12 0.48329-0.15625 0.79102-0.0725 0.61547-0.0879 1.4156-0.0879 2.4531 0 1.179-0.0854 2.2898-0.24609 3.3301-0.16067 1.0403-0.3969 2.0097-0.69727 2.9102-0.30037 0.90045-0.66489 1.7308-1.084 2.4902-0.4191 0.75949-0.8933 1.449-1.4102 2.0664-0.51685 0.61739-1.0763 1.1626-1.6699 1.6367-0.59364 0.47415-1.2216 0.87724-1.8711 1.207-0.64946 0.32979-1.3216 0.58719-2.0059 0.77148-0.6843 0.1843-1.38 0.29436-2.0781 0.33204-0.69817 0.0377-1.3988 3e-3 -2.0898-0.10743-0.69108-0.11008-1.3722-0.29376-2.0352-0.55273s-1.3079-0.59296-1.9219-1.002c-0.61397-0.409-1.1982-0.89299-1.7422-1.4531s-1.047-1.1977-1.5-1.9102c-0.45297-0.71242-0.85626-1.4994-1.1973-2.3652s-0.62004-1.8097-0.82812-2.8301c-0.20809-1.0204-0.34425-2.1189-0.39844-3.2949-0.062-1.3425-0.16409-2.6058-0.27734-3.5606s-0.23766-1.6005-0.34766-1.707c-0.146-0.14125-0.66963-0.26506-1.416-0.36523s-1.7152-0.17722-2.75-0.22266c-1.0348-0.0454-2.1372-0.0601-3.1484-0.0371zm51.336 40.559c9.5161 0.0478 19.006 0.14567 26.229 0.28125 3.6112 0.0678 6.655 0.14497 8.8516 0.23046 2.1966 0.0855 3.5463 0.17893 3.7676 0.2793 0.55425 0.25175 1.0387 0.57351 1.4531 0.94727 0.41445 0.37376 0.7583 0.79904 1.0332 1.2598 0.2749 0.46073 0.47966 0.9561 0.61523 1.4688s0.20275 1.0427 0.19922 1.5723c-4e-3 0.52953-0.0763 1.0589-0.21875 1.5703-0.1424 0.51137-0.35372 1.0047-0.63476 1.4629-0.28104 0.45817-0.63134 0.88009-1.0508 1.25-0.41945 0.36992-0.90918 0.68697-1.4668 0.9336-0.32788 0.14512-1.7955 0.27038-4.1152 0.375-2.3198 0.10461-5.4917 0.18863-9.2305 0.2539-7.4776 0.13055-17.221 0.18388-26.938 0.16406-9.7166-0.0198-19.407-0.11261-26.779-0.27343-3.6864-0.0804-6.7921-0.1771-9.0332-0.29102-1.1206-0.057-2.0259-0.11848-2.6777-0.18359-0.65183-0.0651-1.0506-0.13391-1.1621-0.20703-0.53137-0.34825-0.98033-0.75426-1.3496-1.1992s-0.65858-0.92923-0.87109-1.4375c-0.21251-0.50828-0.34911-1.0399-0.41016-1.5781-0.0611-0.53819-0.048-1.0825 0.0371-1.6172 0.0851-0.53471 0.24283-1.0588 0.46875-1.5566 0.22592-0.49784 0.52138-0.96889 0.88281-1.3965s0.78963-0.81279 1.2812-1.1367c0.49163-0.32393 1.0456-0.58656 1.6621-0.77344 0.32263-0.0977 1.7606-0.17908 4.0332-0.24218 2.2726-0.0631 5.3811-0.10936 9.043-0.14063 7.3237-0.0625 16.865-0.0634 26.381-0.0156zm-11.373 28.809c6.6469 0.0396 13.247 0.12502 18.275 0.24609 2.5144 0.0605 4.6357 0.12951 6.1738 0.20703 1.5382 0.0775 2.493 0.16361 2.6738 0.25586 0.50825 0.25913 0.9565 0.56793 1.3418 0.91602s0.70893 0.7349 0.9707 1.1504c0.26178 0.41549 0.46 0.85899 0.59766 1.3203 0.13766 0.46133 0.21359 0.94019 0.22656 1.4258 0.013 0.4856-0.0361 0.97851-0.14843 1.4668-0.11231 0.4883-0.28723 0.97198-0.52539 1.4414-0.23817 0.46943-0.5397 0.92452-0.9043 1.3535-0.36461 0.429-0.79158 0.83222-1.2832 1.1992-0.0989 0.0739-0.40101 0.14341-0.88086 0.20899-0.47986 0.0656-1.1389 0.12644-1.9492 0.18359-1.6207 0.1143-3.8507 0.21112-6.4902 0.29102-5.2791 0.15979-12.193 0.25114-19.123 0.26757-6.9303 0.0164-13.877-0.0412-19.227-0.17578-2.6746-0.0673-4.9498-0.15328-6.623-0.25976-1.6733-0.10648-2.7458-0.23424-3.0137-0.38086-0.56275-0.308-1.0366-0.68616-1.4277-1.1172s-0.69799-0.91436-0.92383-1.4277c-0.22583-0.51338-0.37068-1.0583-0.4375-1.6133-0.0668-0.55503-0.0566-1.1198 0.0293-1.6758s0.24618-1.1029 0.47851-1.6191c0.23234-0.51628 0.53768-1.0016 0.91016-1.4375 0.37248-0.43587 0.81204-0.82194 1.3184-1.1367s1.079-0.55793 1.7129-0.71093c0.36838-0.0889 1.4872-0.16239 3.166-0.22071 1.6788-0.0583 3.9173-0.10279 6.5254-0.13281 5.2162-0.0601 11.91-0.065 18.557-0.0254zm-9.9629 28.695c4.6255 0.01 9.24 0.0905 12.814 0.24024 1.7872 0.0749 3.314 0.16631 4.4531 0.27539 1.1391 0.10907 1.8909 0.23615 2.125 0.3789 0.47387 0.289 0.88534 0.63003 1.2363 1.0098s0.64231 0.79785 0.8711 1.2422c0.22879 0.44433 0.3966 0.91369 0.5039 1.3965 0.10731 0.48279 0.1541 0.97756 0.14063 1.4727-0.0135 0.49509-0.0872 0.9914-0.2207 1.4726-0.13354 0.48126-0.32718 0.94936-0.58008 1.3906s-0.56595 0.85532-0.9375 1.2305c-0.37156 0.37514-0.80152 0.71126-1.291 0.99414-0.27312 0.15787-1.0517 0.29579-2.207 0.41406s-2.6874 0.21622-4.4727 0.29492c-3.5706 0.15741-8.1493 0.235-12.727 0.23438-4.5772-6.3e-4 -9.1544-0.0799-12.721-0.23828-1.7832-0.0792-3.3127-0.17834-4.4648-0.29688-1.1521-0.11854-1.9264-0.25619-2.1953-0.41406-0.48812-0.28688-0.91513-0.63144-1.2812-1.0195-0.36612-0.3881-0.67191-0.82035-0.91601-1.2793-0.24411-0.45894-0.42676-0.94589-0.54883-1.4453-0.12207-0.49943-0.18356-1.01-0.1836-1.5195-3e-5 -0.50953 0.0616-1.0166 0.1836-1.5059 0.12202-0.48927 0.30474-0.96176 0.54883-1.4004 0.24408-0.43864 0.54985-0.84355 0.91601-1.2012 0.36616-0.35762 0.793-0.66781 1.2812-0.91406 0.28088-0.14175 1.0738-0.26484 2.248-0.36914s2.7304-0.19042 4.541-0.25781c3.6212-0.13478 8.2573-0.19517 12.883-0.18555z" fill="#fff" fill-opacity=".85324" stroke="#000" stroke-linecap="round" stroke-linejoin="round"/>
<path d="m154.63 118.33c-1.4258-0.0627-2.9448-0.0335-4.3516 0.0957-0.70337 0.0646-1.3797 0.15353-2.002 0.26953s-1.1896 0.25811-1.6797 0.42773c-0.76675 0.26513-1.5083 0.57773-2.2188 0.93164s-1.3907 0.74954-2.0391 1.1856c-0.64833 0.43601-1.2634 0.9124-1.8438 1.4238-0.58038 0.51142-1.1262 1.0585-1.6328 1.6387-0.5066 0.58015-0.97537 1.1937-1.4024 1.8359-0.42697 0.6422-0.81277 1.3122-1.1543 2.0098-0.34153 0.69757-0.63843 1.4217-0.88867 2.168s-0.45235 1.5145-0.60547 2.3027c-0.12138 0.62524-0.21866 2.7803-0.29297 6.0781-0.0743 3.2978-0.12639 7.7397-0.1582 12.938-0.0636 10.396-0.0458 23.819 0.0332 37.18 0.079 13.36 0.21917 26.658 0.4043 36.803 0.0926 5.0725 0.19634 9.357 0.30859 12.467 0.11225 3.1098 0.23395 5.0435 0.36133 5.418 0.2165 0.63675 0.46693 1.2646 0.75 1.8789 0.28306 0.61433 0.59733 1.2152 0.9414 1.8008 0.34408 0.5856 0.71766 1.1564 1.1172 1.707 0.39954 0.55058 0.82595 1.0825 1.2754 1.5918s0.92223 0.99535 1.416 1.457c0.49378 0.46169 1.0084 0.89886 1.541 1.3066 0.53258 0.40778 1.0826 0.78716 1.6484 1.1348s1.1467 0.66224 1.7402 0.94336l2.7031 1.2812 52.49 0.11133c14.123 0.03 24.638 0.0545 32.529 0.043s13.157-0.0596 16.785-0.17578c1.814-0.0581 3.2185-0.13244 4.3359-0.22852 1.1174-0.0961 1.9483-0.21351 2.6152-0.35547s1.1702-0.30818 1.6328-0.5039c0.46266-0.19573 0.88417-0.42036 1.3887-0.67774 0.52213-0.26637 1.0409-0.58008 1.5508-0.93359 0.50989-0.35352 1.0117-0.74729 1.5-1.1758 0.4883-0.4285 0.96257-0.89151 1.4199-1.3828 0.45735-0.49131 0.89739-1.0108 1.3144-1.5527s0.81032-1.107 1.1777-1.6875c0.36742-0.58047 0.70916-1.1764 1.0176-1.7832 0.30842-0.60681 0.58415-1.2247 0.82422-1.8457s0.44309-1.2461 0.60547-1.8691c0.12775-0.4905 0.23916-2.5504 0.33203-5.7871 0.0929-3.2368 0.16776-7.649 0.22656-12.844 0.11761-10.39 0.16811-23.908 0.1543-37.4-0.0138-13.492-0.0917-26.959-0.23047-37.248-0.0694-5.1445-0.1545-9.4949-0.2539-12.656s-0.21318-5.1334-0.3418-5.5234c-0.36375-1.1028-0.76753-2.1243-1.2188-3.0684-0.45123-0.94403-0.94896-1.8114-1.498-2.6035-0.54908-0.79213-1.1513-1.5092-1.8086-2.1562-0.65734-0.64705-1.3705-1.2236-2.1465-1.7324-0.77596-0.50878-1.6145-0.94884-2.5195-1.3262s-1.8755-0.69067-2.9199-0.94336c-1.0444-0.2527-2.1613-0.4452-3.3555-0.58008s-2.4659-0.21245-3.8203-0.23633c-2.2732-0.0403-3.9498-0.0912-5.1934-0.0371-0.62177 0.0271-1.1367 0.0805-1.5625 0.17383-0.42582 0.0934-0.76236 0.22789-1.0332 0.41602-0.27085 0.18812-0.47597 0.43083-0.63282 0.74219-0.15685 0.31135-0.26577 0.69123-0.34961 1.1543-0.16767 0.92613-0.23006 2.183-0.35156 3.8867-0.0784 1.0979-0.20699 2.128-0.38476 3.0898-0.17777 0.96184-0.40505 1.8568-0.67969 2.6797s-0.59781 1.5749-0.9668 2.2559-0.78333 1.2901-1.2441 1.8262c-0.46081 0.53607-0.96746 0.99848-1.5176 1.3867-0.55011 0.38825-1.1444 0.70197-1.7812 0.93946-0.63689 0.23748-1.316 0.39864-2.0371 0.48242-0.72114 0.0838-1.4842 0.0905-2.2871 0.0176-0.81862-0.0741-1.5827-0.20121-2.293-0.38282-0.71024-0.1816-1.3674-0.41739-1.9727-0.71093-0.60527-0.29355-1.1584-0.64474-1.6621-1.0547s-0.95769-0.87935-1.3633-1.4102-0.76334-1.1232-1.0742-1.7793c-0.31088-0.65613-0.57534-1.3762-0.79492-2.1621-0.21959-0.78593-0.39368-1.6384-0.52539-2.5586s-0.22033-1.9079-0.26758-2.9668c-0.0662-1.4855-0.12214-2.6078-0.23438-3.4551-0.0561-0.42364-0.12592-0.77881-0.21875-1.0762-0.0928-0.29736-0.20912-0.53718-0.35546-0.73046-0.14635-0.19329-0.3224-0.33978-0.53907-0.45118-0.21667-0.11139-0.47354-0.18658-0.77734-0.23828-0.60761-0.10339-1.4059-0.10967-2.4629-0.10742-1.0385 2e-3 -1.8465 0.0423-2.4746 0.1875-0.31405 0.0726-0.58413 0.1714-0.81445 0.30469-0.23033 0.13329-0.42089 0.30109-0.58008 0.51172-0.15919 0.21062-0.28608 0.46493-0.38672 0.76953s-0.1758 0.659-0.23047 1.0742c-0.10934 0.83043-0.13962 1.8987-0.14062 3.2715-7.5e-4 1.1077-0.0785 2.1469-0.22657 3.1152-0.14806 0.96833-0.36654 1.8662-0.64257 2.6953-0.27604 0.82909-0.60946 1.5893-0.99415 2.2793-0.38468 0.68997-0.81897 1.3104-1.293 1.8613-0.474 0.55097-0.98924 1.0313-1.5332 1.4434s-1.1183 0.75599-1.7129 1.0293c-0.59461 0.27331-1.2081 0.47667-1.834 0.61133-0.62593 0.13466-1.2644 0.19919-1.9024 0.19531-0.6379-4e-3 -1.2757-0.0765-1.9062-0.21875-0.63055-0.14229-1.2536-0.35417-1.8574-0.63477-0.60386-0.28059-1.1882-0.63005-1.7461-1.0488-0.55785-0.41878-1.0876-0.90605-1.5801-1.4629-0.49249-0.55685-0.94766-1.1822-1.3555-1.877-0.4078-0.69479-0.76848-1.4584-1.0723-2.291-0.30379-0.83263-0.55199-1.7347-0.73243-2.7051-0.18043-0.97034-0.29428-2.0092-0.33203-3.1172-0.05-1.4652-0.0937-2.5729-0.19726-3.4102-0.0518-0.41862-0.11919-0.77013-0.20899-1.0645-0.0898-0.29432-0.20151-0.53276-0.3457-0.72461-0.14419-0.19184-0.32018-0.33609-0.53516-0.44726s-0.46931-0.18793-0.77148-0.24024c-0.60434-0.10461-1.3997-0.11328-2.4512-0.11328-1.1218 0-1.9702 0.0113-2.6172 0.13477-0.32352 0.0617-0.59689 0.15082-0.82813 0.28125-0.23123 0.13043-0.42156 0.30101-0.57812 0.52539-0.15656 0.22437-0.27942 0.50215-0.37891 0.8457-0.0995 0.34356-0.17436 0.75422-0.23437 1.2422-0.12003 0.97594-0.1803 2.2657-0.24805 3.9707-0.0418 1.0511-0.15372 2.034-0.32812 2.9512-0.17441 0.9172-0.40979 1.7691-0.69922 2.5527s-0.63264 1.5001-1.0195 2.1504-0.81838 1.2346-1.2852 1.752-0.96893 0.96683-1.498 1.3516c-0.52911 0.38473-1.0843 0.70462-1.6582 0.95704-0.57388 0.25241-1.1665 0.43816-1.7676 0.55859s-1.2116 0.1753-1.8223 0.16406c-0.61071-0.0112-1.2215-0.0879-1.8242-0.23047-0.60277-0.14257-1.1962-0.3514-1.7734-0.625-0.57727-0.27359-1.1377-0.61328-1.6719-1.0176-0.5342-0.40429-1.044-0.87353-1.5176-1.4082-0.47357-0.53467-0.91128-1.1341-1.3066-1.7988-0.39537-0.66472-0.74728-1.395-1.0469-2.1894s-0.5481-1.6523-0.73437-2.5762c-0.18628-0.92385-0.30986-1.9139-0.36524-2.9668-0.151-2.874-0.29631-5.2579-0.32031-5.2969-0.12063-0.19638-0.36584-0.37471-0.71094-0.53321-0.34509-0.1585-0.78997-0.29764-1.3086-0.41601-1.0372-0.23675-2.3692-0.39038-3.7949-0.45313zm-2.9434 1.0996c1.0113-0.0229 2.1136-8e-3 3.1484 0.0371 1.0348 0.0454 2.0036 0.12249 2.75 0.22266s1.27 0.22398 1.416 0.36523c0.11 0.1065 0.23441 0.75228 0.34766 1.707s0.21534 2.218 0.27734 3.5606c0.0542 1.1761 0.19035 2.2745 0.39844 3.2949 0.20808 1.0204 0.48711 1.9642 0.82812 2.8301s0.7443 1.6528 1.1973 2.3652c0.45296 0.71243 0.95605 1.35 1.5 1.9102s1.1282 1.0441 1.7422 1.4531c0.61396 0.40899 1.2589 0.74298 1.9219 1.002s1.3441 0.44265 2.0352 0.55273c0.69107 0.11009 1.3917 0.1451 2.0898 0.10743 0.69817-0.0377 1.3938-0.14774 2.0781-0.33204 0.68429-0.18429 1.3564-0.44169 2.0059-0.77148 0.64945-0.32979 1.2774-0.73288 1.8711-1.207 0.59364-0.47416 1.1531-1.0193 1.6699-1.6367 0.51686-0.61739 0.99106-1.3069 1.4102-2.0664 0.41909-0.75948 0.78361-1.5898 1.084-2.4902 0.30037-0.90046 0.5366-1.8699 0.69727-2.9102 0.16067-1.0403 0.24609-2.1511 0.24609-3.3301 0-1.0375 0.0154-1.8376 0.0879-2.4531 0.0363-0.30773 0.0866-0.56846 0.15625-0.79102 0.0696-0.22255 0.15836-0.4057 0.27149-0.55664 0.11312-0.15093 0.25117-0.27041 0.41796-0.36328 0.1668-0.0929 0.36313-0.15867 0.59375-0.20703 0.46125-0.0967 1.0604-0.11914 1.8379-0.11914 0.80474 0 1.4121 7e-3 1.875 0.0957 0.23144 0.0443 0.42612 0.10787 0.59179 0.20313 0.16568 0.0953 0.30103 0.22128 0.41406 0.38672 0.11304 0.16543 0.20383 0.37017 0.27735 0.625 0.0735 0.25482 0.1306 0.5604 0.17773 0.92383 0.0943 0.72684 0.1493 1.6903 0.2168 2.9668 0.0614 1.1628 0.20069 2.2533 0.41016 3.2734 0.20946 1.0201 0.4885 1.9686 0.82617 2.8457 0.33766 0.87714 0.7356 1.6822 1.1816 2.416s0.94002 1.3962 1.4746 1.9863c0.53459 0.59014 1.1096 1.1086 1.7129 1.5547 0.60331 0.44613 1.2345 0.82128 1.8867 1.123 0.65221 0.30177 1.3246 0.53044 2.0059 0.6875 0.68129 0.15707 1.372 0.24189 2.0625 0.25391 0.69054 0.012 1.3806-0.0483 2.0605-0.18164 0.67998-0.13338 1.3504-0.34002 2-0.61914 0.64958-0.27912 1.2796-0.63144 1.8789-1.0566 0.59935-0.42521 1.168-0.92251 1.6973-1.4942 0.5293-0.57163 1.0195-1.2171 1.459-1.9355s0.82846-1.5095 1.1582-2.375c0.32974-0.86554 0.59861-1.8054 0.79883-2.8184s0.33194-2.1009 0.38281-3.2617c0.0605-1.3802 0.1088-2.4193 0.19727-3.2031 0.0442-0.39189 0.0973-0.71993 0.16797-0.99414 0.0707-0.2742 0.15934-0.4944 0.26953-0.67187s0.2436-0.31239 0.40625-0.41406c0.16265-0.10168 0.35392-0.16996 0.58203-0.2168 0.45622-0.0937 1.0556-0.0996 1.8516-0.0996 0.79575 0 1.3922-3e-3 1.8418 0.0781 0.22477 0.0406 0.41349 0.10207 0.57227 0.19531 0.15877 0.0932 0.28806 0.21925 0.39453 0.38672 0.10646 0.16747 0.18994 0.37735 0.25781 0.64062 0.0679 0.26327 0.11915 0.58029 0.16211 0.96094 0.0859 0.7613 0.13658 1.7784 0.20508 3.1387 0.0586 1.1635 0.19989 2.2527 0.41406 3.2695s0.50105 1.9617 0.84961 2.832 0.75897 1.6666 1.2207 2.3906c0.46174 0.72403 0.97366 1.3753 1.5274 1.9531 0.55368 0.57785 1.149 1.0838 1.7734 1.5156s1.2792 0.7902 1.9531 1.0762c0.67393 0.28597 1.3661 0.49841 2.0684 0.63867 0.70223 0.14027 1.4137 0.20841 2.123 0.20313 0.70932-5e-3 1.4162-0.0837 2.1113-0.23438 0.69517-0.15067 1.3792-0.37402 2.0391-0.66992 0.65982-0.2959 1.2972-0.66449 1.9004-1.1055 0.60323-0.44098 1.1718-0.95512 1.6973-1.541 0.52544-0.5859 1.0072-1.244 1.4336-1.9746 0.42643-0.73066 0.79733-1.5329 1.1035-2.4082 0.30619-0.87526 0.54816-1.8221 0.71289-2.8418s0.25184-2.1134 0.25391-3.2774c3e-3 -1.3648-8e-3 -2.3784 0.0957-3.1328 0.0516-0.37722 0.13114-0.6888 0.25586-0.94727 0.12472-0.25846 0.29369-0.4647 0.52344-0.62695s0.52-0.28055 0.88672-0.36914c0.36671-0.0886 0.81007-0.14612 1.3457-0.18359 1.0712-0.0749 2.5127-0.0704 4.4512-0.0762 1.2622-4e-3 2.4619 0.0535 3.5996 0.17187s2.2137 0.29745 3.2285 0.53906c1.0148 0.24162 1.9679 0.5443 2.8613 0.91016 0.8934 0.36586 1.7264 0.79406 2.5 1.2852 0.7736 0.49109 1.4892 1.0467 2.1445 1.6641 0.65536 0.61732 1.2504 1.2965 1.7891 2.041 0.53871 0.74456 1.0197 1.553 1.4434 2.4258 0.42363 0.87278 0.79143 1.8105 1.1016 2.8125 0.0944 0.30475 0.17768 2.2102 0.25195 5.3164 0.0743 3.1062 0.13821 7.414 0.19141 12.525 0.10639 10.223 0.16923 23.658 0.18555 37.123 0.0163 13.465-0.0142 26.958-0.0957 37.295-0.0407 5.1682-0.0935 9.5468-0.16015 12.738-0.0666 3.1915-0.14674 5.1967-0.24024 5.6152-0.13125 0.588-0.31022 1.1852-0.53125 1.7832s-0.48451 1.1965-0.7832 1.7891c-0.2987 0.59252-0.63186 1.1785-0.99609 1.75-0.36424 0.57151-0.75813 1.1291-1.1758 1.6641-0.41765 0.53497-0.8594 1.0483-1.3184 1.5312-0.45895 0.48292-0.93569 0.93428-1.4238 1.3496-0.48814 0.41534-0.987 0.79472-1.4922 1.127s-1.0172 0.61793-1.5273 0.85156c-0.491 0.22462-0.94233 0.42281-1.4629 0.5957-0.52056 0.17289-1.1096 0.3199-1.875 0.44727-0.76539 0.12736-1.7081 0.2342-2.9336 0.32226-1.2255 0.0881-2.734 0.15793-4.6348 0.21289-3.8016 0.10994-9.1684 0.16093-16.963 0.17579-7.7945 0.0148-18.018-7e-3 -31.527-0.0371l-51.162-0.11524-3.041-1.5039c-0.66925-0.33075-1.3119-0.69889-1.9258-1.1016-0.61384-0.40268-1.1995-0.8395-1.7539-1.3086-0.55445-0.46909-1.0773-0.97001-1.5684-1.5s-0.94939-1.0904-1.373-1.6758c-0.42365-0.58538-0.81375-1.1968-1.166-1.832-0.35227-0.63524-0.66648-1.2931-0.94336-1.9727-0.27689-0.67959-0.51539-1.3812-0.71289-2.0996-0.19751-0.71843-0.35463-1.4553-0.46875-2.207-0.072-0.4745-0.13285-1.9484-0.18164-4.4531-0.0488-2.5047-0.0854-6.0388-0.11133-10.633-0.0519-9.188-0.059-22.615-0.0215-40.514l0.11133-52.799 1.2383-2.6016c0.30538-0.64075 0.64555-1.2587 1.0156-1.8516 0.37008-0.59288 0.7697-1.16 1.1973-1.6992 0.42757-0.53924 0.88155-1.0494 1.3594-1.5293s0.97912-0.92903 1.5-1.3438c0.52087-0.41472 1.0624-0.79484 1.6191-1.1387s1.1295-0.65079 1.7148-0.91797 1.1824-0.49491 1.7891-0.67969c0.6067-0.18478 1.2229-0.3272 1.8438-0.42382 0.67574-0.105 1.5962-0.1665 2.6074-0.18946z" fill="#fff" fill-opacity=".85324" stroke="#000" stroke-linecap="round" stroke-linejoin="round"/>
<path d="m230.44 112.5c-0.34931 0.0376-0.69742 0.11521-1.0332 0.23243-0.33578 0.11721-0.6596 0.27337-0.96094 0.46289s-0.5802 0.41344-0.82617 0.66797c-0.24598 0.25452-0.45921 0.53933-0.62891 0.85156-0.1697 0.31222-0.29469 0.65105-0.36719 1.0137-0.25112 1.2548-0.41707 2.4698-0.5039 3.6289-0.0868 1.1591-0.0952 2.2628-0.0332 3.293 0.062 1.0302 0.19333 1.9874 0.38868 2.8555 0.19534 0.86807 0.45436 1.6476 0.76757 2.3203 0.31322 0.67268 0.68204 1.2395 1.0977 1.6836 0.20781 0.22203 0.42769 0.41167 0.6582 0.57031 0.23051 0.15865 0.47138 0.28585 0.72266 0.37696 0.25128 0.0911 0.51309 0.14661 0.7832 0.16601s0.54893 2e-3 0.83594-0.0547c0.28701-0.0564 0.58084-0.15065 0.88281-0.28711s0.61078-0.31453 0.92578-0.53515c0.17994-0.12606 0.34935-0.29094 0.50782-0.48828s0.30646-0.42807 0.44336-0.6875c0.27378-0.51886 0.50457-1.1512 0.6914-1.8633 0.18684-0.71207 0.33067-1.5023 0.42969-2.334 0.099-0.83173 0.15372-1.7061 0.16406-2.584 0.0104-0.87788-0.0243-1.7608-0.10351-2.6113-0.0792-0.85049-0.20345-1.6684-0.37305-2.418s-0.38562-1.4308-0.64648-2.0059c-0.26087-0.57511-0.56693-1.044-0.91993-1.3711-0.26437-0.245-0.55749-0.43659-0.87109-0.58008-0.3136-0.1435-0.64832-0.23782-0.99023-0.28711-0.34192-0.0493-0.69171-0.0532-1.041-0.0156z" fill="#fff" stroke="#000" stroke-linecap="round" stroke-linejoin="round"/>
<path d="m200.92 112.11c-0.42311-0.0251-0.83107 0.0502-1.2168 0.2207-0.38573 0.17047-0.75087 0.43508-1.0859 0.78711-0.33506 0.35203-0.641 0.79092-0.91211 1.3106-0.2711 0.51962-0.50731 1.1197-0.70117 1.793-0.19386 0.67325-0.34589 1.4214-0.44922 2.2344-0.10332 0.81293-0.15675 1.6922-0.15625 2.6309 1e-3 1.6935 0.0715 3.1072 0.22852 4.2774 0.0785 0.58509 0.17913 1.1094 0.30273 1.5762 0.1236 0.46675 0.27064 0.87567 0.44336 1.2324s0.36983 0.66094 0.59571 0.91601 0.48058 0.46133 0.76367 0.62305c0.28308 0.16172 0.59512 0.27878 0.93945 0.35547 0.34433 0.0767 0.72124 0.11328 1.1309 0.11328 0.30625 0 0.60136-0.0484 0.88477-0.14062 0.28341-0.0922 0.55362-0.22799 0.8125-0.40235 0.25887-0.17435 0.50562-0.38645 0.73828-0.63281 0.23265-0.24636 0.45151-0.52768 0.65625-0.83594 0.40947-0.61652 0.76119-1.347 1.0488-2.1504 0.28763-0.80344 0.51181-1.6784 0.66406-2.5879s0.23301-1.8525 0.23633-2.7871c3e-3 -0.9346-0.0713-1.8614-0.23047-2.7402-0.15916-0.87884-0.4031-1.709-0.73828-2.4512-0.16759-0.37109-0.35813-0.72122-0.57227-1.043-0.21413-0.32176-0.45052-0.6166-0.71289-0.87891-0.458-0.458-0.91413-0.80061-1.3613-1.0352-0.4472-0.23454-0.88548-0.35971-1.3086-0.38476z" fill="#fff" stroke="#000" stroke-linecap="round" stroke-linejoin="round"/>
<path d="m170.68 112.07c-0.41344-0.0108-0.80735 0.0787-1.1777 0.26172-0.37039 0.18297-0.71815 0.45937-1.0352 0.82422-0.317 0.36484-0.60416 0.81675-0.85742 1.3516-0.25327 0.53481-0.47121 1.1528-0.6504 1.8457-0.17918 0.69287-0.31929 1.4618-0.41406 2.3008-0.0948 0.83902-0.14453 1.7475-0.14453 2.7207 0 0.955 0.0445 1.8454 0.12891 2.666 0.0844 0.82064 0.20754 1.5708 0.36914 2.248s0.36028 1.2817 0.59179 1.8066 0.49686 0.97225 0.79102 1.3359 0.61726 0.64447 0.9668 0.83789 0.72538 0.29833 1.123 0.3125c0.39767 0.0142 0.81734-0.0623 1.2559-0.23633 0.43853-0.17405 0.89507-0.44516 1.3672-0.81641 0.37813-0.2975 0.71353-0.72996 1.0039-1.2656 0.29037-0.53566 0.5371-1.1756 0.73828-1.8828s0.35625-1.4828 0.4668-2.2949c0.11054-0.81214 0.17684-1.6593 0.19531-2.5098 0.0185-0.85047-0.0109-1.7032-0.0859-2.5254-0.0751-0.82218-0.19718-1.6145-0.36719-2.3418s-0.38789-1.3913-0.65429-1.957c-0.26641-0.56575-0.58107-1.0335-0.94532-1.3711-0.4685-0.43413-0.92886-0.75614-1.375-0.97266s-0.87758-0.32707-1.291-0.33789z" fill="#fff" stroke="#000" stroke-linecap="round" stroke-linejoin="round"/>
<path d="m170.25 111.24c-0.3456 0.0367-0.68948 0.11565-1.0254 0.23633-0.33592 0.12069-0.66447 0.28382-0.98047 0.49219-0.3695 0.24363-0.71414 0.62972-1.0293 1.125s-0.60043 1.0998-0.85351 1.7832c-0.25309 0.68339-0.47298 1.446-0.65625 2.2539-0.18328 0.80792-0.32983 1.6604-0.43555 2.5293-0.10572 0.8689-0.17098 1.7528-0.19141 2.6191-0.0204 0.86633 4e-3 1.7154 0.0762 2.5156 0.0726 0.8002 0.19382 1.5522 0.36719 2.2227s0.39781 1.261 0.67969 1.7383c0.269 0.45562 0.57749 0.85517 0.91601 1.1992 0.33853 0.34405 0.70722 0.63113 1.0957 0.86328s0.79791 0.40939 1.2168 0.5293c0.41889 0.11991 0.84763 0.18406 1.2774 0.1914 0.42972 7e-3 0.86027-0.0429 1.2812-0.14843 0.42098-0.10556 0.83193-0.26754 1.2246-0.48633s0.76652-0.49382 1.1113-0.82617c0.34481-0.33236 0.66207-0.72172 0.93945-1.168 0.177-0.28463 0.33541-0.67973 0.47461-1.1582 0.13919-0.47847 0.25928-1.0414 0.35937-1.6602 0.20019-1.2374 0.31947-2.701 0.35547-4.1777s-0.0118-2.9667-0.15039-4.2539c-0.0693-0.6436-0.16052-1.2362-0.27539-1.752-0.11487-0.51578-0.25427-0.95468-0.41601-1.2891-0.18888-0.39-0.40592-0.75003-0.64649-1.0781-0.24057-0.3281-0.50312-0.62421-0.78516-0.88672-0.28203-0.26251-0.5832-0.49036-0.89648-0.6836-0.31328-0.19323-0.64033-0.35042-0.97461-0.4707s-0.67643-0.2044-1.0215-0.24805c-0.34506-0.0436-0.69151-0.0484-1.0371-0.0117zm0.43164 0.83399c0.41343 0.0108 0.84487 0.12137 1.291 0.33789s0.9065 0.53853 1.375 0.97266c0.36425 0.33762 0.67891 0.80534 0.94532 1.3711 0.2664 0.56576 0.48428 1.2298 0.65429 1.957s0.29214 1.5196 0.36719 2.3418c0.075 0.82218 0.10441 1.6749 0.0859 2.5254-0.0185 0.85047-0.0848 1.6976-0.19531 2.5098-0.11055 0.81215-0.26562 1.5877-0.4668 2.2949s-0.44791 1.3472-0.73828 1.8828c-0.29038 0.53566-0.62578 0.96812-1.0039 1.2656-0.47212 0.37125-0.92866 0.64236-1.3672 0.81641-0.43852 0.17405-0.85819 0.2505-1.2559 0.23633-0.39766-0.0142-0.7735-0.11908-1.123-0.3125s-0.67264-0.4742-0.9668-0.83789-0.55951-0.81096-0.79102-1.3359-0.43019-1.1293-0.59179-1.8066-0.28471-1.4274-0.36914-2.248c-0.0844-0.82063-0.12891-1.711-0.12891-2.666 0-0.97325 0.0498-1.8817 0.14453-2.7207 0.0948-0.83901 0.23488-1.6079 0.41406-2.3008 0.17919-0.69286 0.39713-1.3109 0.6504-1.8457 0.25326-0.53481 0.54042-0.98672 0.85742-1.3516 0.317-0.36485 0.66476-0.64125 1.0352-0.82422s0.7643-0.27254 1.1777-0.26172z" fill="#fff" fill-opacity=".85324" stroke="#000" stroke-linecap="round" stroke-linejoin="round"/>
<path d="m200.65 111.13c-0.53228 0.0652-1.0961 0.21583-1.6875 0.45508-0.30944 0.12519-0.60106 0.29962-0.875 0.51758-0.27395 0.21796-0.52948 0.47864-0.76758 0.77734s-0.45825 0.63651-0.66016 1.0039c-0.2019 0.3674-0.38543 0.7654-0.55078 1.1894-0.3307 0.8481-0.58912 1.7983-0.77148 2.8008-0.18237 1.0025-0.28913 2.0567-0.32032 3.1172-0.0312 1.0605 0.0139 2.1262 0.13672 3.1484 0.12283 1.0223 0.32385 2.001 0.60352 2.8887 0.13983 0.44383 0.29893 0.86569 0.47851 1.2578 0.17958 0.39213 0.37798 0.75562 0.59766 1.084s0.46057 0.62046 0.7207 0.87304c0.26013 0.25259 0.54086 0.46611 0.8418 0.63086 0.607 0.33225 1.1889 0.56193 1.7441 0.69532 0.55528 0.13338 1.0833 0.16892 1.5801 0.11132s0.96311-0.20853 1.3945-0.44921 0.82822-0.57046 1.1875-0.98633c0.35928-0.41588 0.68061-0.91682 0.96094-1.5s0.52027-1.2496 0.71484-1.9922 0.34331-1.5629 0.44531-2.457c0.10201-0.89412 0.15754-1.8607 0.16016-2.8984 2e-3 -0.99762-0.042-1.9285-0.12891-2.791-0.0869-0.86247-0.21675-1.6572-0.38867-2.3789-0.17191-0.72176-0.38603-1.3718-0.63867-1.9473-0.25263-0.57548-0.54402-1.0763-0.87305-1.5-0.32903-0.42365-0.6946-0.76888-1.0957-1.0352s-0.83779-0.45332-1.3066-0.55664-0.96968-0.12378-1.502-0.0586zm0.26953 0.97852c0.42311 0.025 0.86139 0.15022 1.3086 0.38476 0.4472 0.23455 0.90333 0.57716 1.3613 1.0352 0.26237 0.26231 0.49876 0.55715 0.71289 0.87891 0.21414 0.32175 0.40468 0.67188 0.57227 1.043 0.33518 0.74217 0.57912 1.5723 0.73828 2.4512 0.15915 0.87883 0.23379 1.8056 0.23047 2.7402-3e-3 0.9346-0.0841 1.8776-0.23633 2.7871-0.15225 0.90947-0.37643 1.7844-0.66406 2.5879-0.28764 0.80344-0.63936 1.5339-1.0488 2.1504-0.20474 0.30826-0.4236 0.58958-0.65625 0.83594-0.23266 0.24636-0.47941 0.45846-0.73828 0.63281-0.25888 0.17436-0.52909 0.31011-0.8125 0.40235-0.28341 0.0922-0.57852 0.14062-0.88477 0.14062-0.40962 0-0.78653-0.0366-1.1309-0.11328-0.34433-0.0767-0.65637-0.19375-0.93945-0.35547-0.28309-0.16172-0.53779-0.36798-0.76367-0.62305s-0.42299-0.55926-0.59571-0.91601-0.31976-0.76567-0.44336-1.2324c-0.1236-0.46676-0.22421-0.99108-0.30273-1.5762-0.15705-1.1702-0.22752-2.5838-0.22852-4.2774-5e-4 -0.93862 0.0529-1.8179 0.15625-2.6309 0.10333-0.81292 0.25536-1.5611 0.44922-2.2344 0.19386-0.67326 0.43007-1.2734 0.70117-1.793 0.27111-0.51963 0.57705-0.95852 0.91211-1.3106 0.33507-0.35203 0.70021-0.61664 1.0859-0.78711s0.79369-0.24576 1.2168-0.2207z" fill="#fff" fill-opacity=".85324" stroke="#000" stroke-linecap="round" stroke-linejoin="round"/>
<path d="m231.5 110.99c-0.50067-0.0423-1.0314 0.0135-1.5898 0.17383-0.55849 0.16029-1.1449 0.4255-1.7539 0.79687-0.25407 0.15494-0.49237 0.35454-0.7168 0.59375s-0.43434 0.51787-0.62891 0.83008c-0.38913 0.62443-0.71803 1.3836-0.98632 2.2324-0.2683 0.84884-0.47549 1.7864-0.6211 2.7695-0.1456 0.9831-0.22894 2.0118-0.25 3.0391-0.0211 1.0272 0.0197 2.054 0.125 3.0352 0.10533 0.98119 0.27424 1.9167 0.50781 2.7617 0.23358 0.84502 0.53281 1.5981 0.89649 2.2168 0.18184 0.30935 0.37904 0.58444 0.59375 0.82031s0.44555 0.43286 0.69336 0.58398c0.64137 0.391 1.257 0.67424 1.8438 0.85352s1.145 0.25504 1.6699 0.23047c0.52488-0.0246 1.017-0.14859 1.4727-0.36914 0.45567-0.22055 0.87475-0.53861 1.2539-0.94727 0.37916-0.40865 0.71834-0.90915 1.0137-1.498 0.29533-0.5889 0.54776-1.2661 0.75196-2.0274 0.20419-0.76126 0.36104-1.6055 0.46679-2.5312 0.10576-0.92575 0.16016-1.9313 0.16016-3.0137 0-1.0789-0.0525-2.0843-0.1543-3.0117-0.10174-0.9274-0.25304-1.7775-0.44921-2.5449-0.19618-0.76741-0.43743-1.4538-0.72071-2.0527-0.28328-0.59889-0.60764-1.1113-0.9707-1.5332-0.36306-0.42187-0.76565-0.75194-1.2012-0.98828-0.43553-0.23634-0.90558-0.37764-1.4062-0.41992zm-1.0547 1.5098c0.34931-0.0376 0.6991-0.0337 1.041 0.0156 0.34191 0.0493 0.67663 0.14361 0.99023 0.28711 0.3136 0.14349 0.60672 0.33508 0.87109 0.58008 0.353 0.32712 0.65906 0.79598 0.91993 1.3711 0.26086 0.57511 0.47688 1.2563 0.64648 2.0059s0.29385 1.5675 0.37305 2.418c0.0792 0.85048 0.11386 1.7334 0.10351 2.6113-0.0103 0.87787-0.065 1.7522-0.16406 2.584-0.099 0.83173-0.24285 1.6219-0.42969 2.334-0.18683 0.71206-0.41762 1.3444-0.6914 1.8633-0.1369 0.25943-0.28489 0.49016-0.44336 0.6875s-0.32788 0.36222-0.50782 0.48828c-0.315 0.22062-0.62381 0.39869-0.92578 0.53515s-0.5958 0.23066-0.88281 0.28711c-0.28701 0.0564-0.56583 0.0741-0.83594 0.0547s-0.53192-0.0749-0.7832-0.16601c-0.25128-0.0911-0.49215-0.21831-0.72266-0.37696-0.23051-0.15864-0.45039-0.34828-0.6582-0.57031-0.41562-0.44407-0.78444-1.0109-1.0977-1.6836-0.31321-0.67269-0.57223-1.4522-0.76757-2.3203-0.19535-0.86806-0.32668-1.8253-0.38868-2.8555-0.062-1.0302-0.0536-2.1339 0.0332-3.293 0.0868-1.1591 0.25278-2.3742 0.5039-3.6289 0.0725-0.36262 0.19749-0.70145 0.36719-1.0137 0.1697-0.31223 0.38293-0.59704 0.62891-0.85156 0.24597-0.25453 0.52483-0.47845 0.82617-0.66797s0.62516-0.34568 0.96094-0.46289c0.33578-0.11722 0.68389-0.19481 1.0332-0.23243z" fill="#fff" fill-opacity=".85324" stroke="#000" stroke-linecap="round" stroke-linejoin="round"/>
<path d="m204 94.15c-15.106-0.02-28.386 0.0017-38.047 0.05469-9.6609 0.053-15.703 0.13814-16.334 0.24414-0.92044 0.15506-1.8357 0.35485-2.7441 0.5957-0.90848 0.24086-1.8109 0.52345-2.7031 0.8457-0.89223 0.32226-1.7748 0.68278-2.6465 1.082-0.87165 0.39926-1.7314 0.83673-2.5781 1.3086-0.84677 0.47186-1.6805 0.97946-2.498 1.5195-0.81757 0.54008-1.6202 1.1129-2.4043 1.7168-0.78406 0.60389-1.5487 1.2371-2.2949 1.9004-0.74625 0.66331-1.4736 1.3559-2.1777 2.0742-0.70413 0.71833-1.3853 1.4635-2.043 2.2324-0.65769 0.76896-1.2915 1.5618-1.8984 2.377-0.60694 0.81518-1.1884 1.6527-1.7402 2.5098-0.55189 0.85702-1.0739 1.7344-1.5664 2.6289-0.49252 0.89445-0.95398 1.8049-1.3828 2.7324-0.42884 0.9275-0.8247 1.872-1.1856 2.8281-0.36085 0.95615-0.68802 1.9239-0.97656 2.9043-0.28855 0.98039-0.54002 1.9724-0.75196 2.9727-0.12837 0.60537-0.24973 2.7975-0.36328 6.1816-0.11354 3.3841-0.21844 7.9603-0.3125 13.332-0.18811 10.743-0.33187 24.671-0.41406 38.617-0.0822 13.947-0.10203 27.912-0.041 38.732 0.0305 5.41 0.081 10.035 0.1543 13.477 0.0733 3.4416 0.16831 5.7008 0.28906 6.3828 0.15475 0.87419 0.34648 1.7431 0.57227 2.6055s0.48584 1.7175 0.7793 2.5644c0.29345 0.84696 0.62075 1.6858 0.97851 2.5137 0.35776 0.82789 0.74536 1.646 1.1641 2.4512 0.41871 0.8052 0.86748 1.5981 1.3438 2.377 0.47628 0.77889 0.98124 1.544 1.5117 2.293 0.53049 0.74893 1.0866 1.4819 1.668 2.1973 0.58133 0.71536 1.1876 1.4117 1.8164 2.0898s1.2802 1.3373 1.9531 1.9746c0.67293 0.6373 1.3664 1.2529 2.0801 1.8457 0.71368 0.59283 1.4482 1.1623 2.1992 1.707s1.5196 1.0656 2.3047 1.5586c0.78507 0.49298 1.5866 0.95886 2.4023 1.3965s1.6453 0.84598 2.4883 1.2246 1.6995 0.72696 2.5664 1.043c0.86694 0.316 1.7453 0.59986 2.6328 0.84961l3.1992 0.90039 49.801 0.12695c13.269 0.0337 23.405 0.0543 31.246 0.0371 7.8407-0.0172 13.385-0.0722 17.465-0.1875 2.0402-0.0577 3.7142-0.12968 5.127-0.2207 1.4128-0.091 2.5647-0.20174 3.5586-0.33203 0.99391-0.13029 1.8298-0.28159 2.6133-0.45703 0.78352-0.17545 1.5152-0.37507 2.2969-0.60157 0.842-0.244 1.6684-0.51534 2.4805-0.8164 0.81211-0.30107 1.6094-0.63126 2.3906-0.98828 0.78125-0.35703 1.5474-0.74244 2.2969-1.1543s1.4826-0.85082 2.1992-1.3164c0.71667-0.46558 1.4167-0.95641 2.0996-1.4746 0.68294-0.51819 1.3478-1.0631 1.9961-1.6328 0.64826-0.56969 1.28-1.1651 1.8926-1.7852 0.61261-0.62007 1.2072-1.2642 1.7832-1.9336 1.152-1.3387 2.2287-2.7756 3.2285-4.3047 0.99982-1.5291 1.9218-3.1508 2.7617-4.8613 0.83997-1.7105 1.599-3.5095 2.2715-5.3926 0.67245-1.8831 1.2586-3.8497 1.7559-5.8965 0.10188-0.41925 0.19927-2.1785 0.28906-4.9629 0.0898-2.7844 0.17179-6.5942 0.2461-11.115 0.14862-9.0421 0.26383-20.93 0.33008-33.148 0.0662-12.218 0.0844-24.768 0.041-35.135-0.0217-5.1835-0.0591-9.8215-0.11328-13.6-0.0542-3.7781-0.12472-6.6952-0.21484-8.4394-0.0654-1.2646-0.16927-2.5068-0.3086-3.7246-0.13932-1.2178-0.31505-2.4123-0.52734-3.582s-0.45988-2.3152-0.74414-3.4356c-0.28427-1.1203-0.60569-2.2156-0.96094-3.2852s-0.74467-2.1135-1.1699-3.1309c-0.42525-1.0174-0.88659-2.0068-1.3809-2.9707-0.49427-0.96391-1.0217-1.9014-1.584-2.8106-0.5623-0.9091-1.1578-1.7896-1.7871-2.6426-0.62933-0.85295-1.2929-1.6791-1.9883-2.4746-0.69538-0.79546-1.4232-1.5602-2.1836-2.2969s-1.5524-1.4446-2.377-2.1211c-0.82451-0.67647-1.6808-1.3225-2.5684-1.9375-0.8876-0.61497-1.8081-1.1979-2.7578-1.75-0.9497-0.55213-1.9286-1.0726-2.9395-1.5605-1.0108-0.48794-2.0521-0.94476-3.123-1.3672-1.0709-0.42242-2.1727-0.81045-3.3027-1.166l-2.9394-0.92578zm27.498 16.842c0.50067 0.0423 0.97072 0.18358 1.4062 0.41992 0.43552 0.23634 0.83811 0.56641 1.2012 0.98828 0.36306 0.42188 0.68742 0.93431 0.9707 1.5332 0.28328 0.5989 0.52453 1.2853 0.72071 2.0527 0.19617 0.7674 0.34747 1.6175 0.44921 2.5449 0.10175 0.9274 0.1543 1.9328 0.1543 3.0117 0 1.0824-0.0544 2.0879-0.16016 3.0137-0.10575 0.92575-0.2626 1.77-0.46679 2.5312-0.2042 0.76126-0.45663 1.4384-0.75196 2.0274-0.29533 0.58889-0.63451 1.0894-1.0137 1.498-0.37915 0.40866-0.79823 0.72672-1.2539 0.94727-0.45568 0.22055-0.94778 0.34457-1.4727 0.36914-0.52488 0.0246-1.0831-0.0512-1.6699-0.23047-0.58678-0.17928-1.2024-0.46252-1.8438-0.85352-0.24781-0.15112-0.47865-0.34811-0.69336-0.58398s-0.41191-0.51096-0.59375-0.82031c-0.36368-0.61871-0.66291-1.3718-0.89649-2.2168-0.23357-0.84502-0.40248-1.7805-0.50781-2.7617s-0.14606-2.0079-0.125-3.0352c0.0211-1.0272 0.1044-2.056 0.25-3.0391 0.14561-0.9831 0.3528-1.9207 0.6211-2.7695 0.26829-0.84883 0.59719-1.608 0.98632-2.2324 0.19457-0.31221 0.40448-0.59087 0.62891-0.83008s0.46273-0.43881 0.7168-0.59375c0.609-0.37137 1.1954-0.63658 1.7539-0.79687 0.5585-0.16029 1.0892-0.21611 1.5898-0.17383zm-30.844 0.14062c0.53227-0.0652 1.0331-0.0447 1.502 0.0586 0.46885 0.10332 0.90554 0.29038 1.3066 0.55665s0.76667 0.6115 1.0957 1.0352c0.32903 0.42366 0.62042 0.92452 0.87305 1.5 0.25264 0.57549 0.46676 1.2255 0.63867 1.9473 0.17192 0.72176 0.30181 1.5164 0.38867 2.3789 0.0869 0.86247 0.13141 1.7934 0.12891 2.791-3e-3 1.0378-0.0582 2.0043-0.16016 2.8984-0.102 0.89412-0.25074 1.7144-0.44531 2.457s-0.43451 1.409-0.71484 1.9922-0.60166 1.0841-0.96094 1.5c-0.35928 0.41587-0.75608 0.74565-1.1875 0.98633s-0.89777 0.39162-1.3945 0.44921c-0.49676 0.0576-1.0248 0.0221-1.5801-0.11132-0.55528-0.13339-1.1371-0.36307-1.7441-0.69532-0.30094-0.16475-0.58167-0.37827-0.8418-0.63086-0.26013-0.25258-0.50102-0.54467-0.7207-0.87304s-0.41808-0.69186-0.59766-1.084c-0.17958-0.39212-0.33868-0.81398-0.47851-1.2578-0.27967-0.88766-0.48069-1.8664-0.60352-2.8887-0.12282-1.0223-0.1679-2.0879-0.13672-3.1484 0.0312-1.0605 0.13795-2.1147 0.32032-3.1172 0.18236-1.0025 0.44078-1.9527 0.77148-2.8008 0.16535-0.42405 0.34888-0.82205 0.55078-1.1894 0.20191-0.3674 0.42206-0.70521 0.66016-1.0039s0.49363-0.55938 0.76758-0.77734c0.27394-0.21796 0.56556-0.39239 0.875-0.51758 0.59137-0.23925 1.1552-0.3899 1.6875-0.45508zm-30.406 0.10742c0.3456-0.0367 0.69205-0.0319 1.0371 0.0117 0.34505 0.0436 0.6872 0.12777 1.0215 0.24805s0.66133 0.27747 0.97461 0.4707c0.31328 0.19324 0.61445 0.42109 0.89648 0.6836 0.28204 0.26251 0.54459 0.55862 0.78516 0.88672 0.24057 0.32809 0.45761 0.68812 0.64649 1.0781 0.16174 0.33438 0.30114 0.77328 0.41601 1.2891 0.11487 0.51579 0.20611 1.1084 0.27539 1.752 0.13856 1.2872 0.18639 2.7772 0.15039 4.2539s-0.15528 2.9403-0.35547 4.1777c-0.10009 0.61872-0.22018 1.1817-0.35937 1.6602-0.1392 0.47848-0.29761 0.87358-0.47461 1.1582-0.27738 0.44625-0.59464 0.83561-0.93945 1.168-0.34481 0.33235-0.71865 0.60738-1.1113 0.82617s-0.80363 0.38077-1.2246 0.48633c-0.42098 0.10555-0.85153 0.15578-1.2812 0.14843-0.42972-7e-3 -0.85846-0.0715-1.2774-0.1914-0.41888-0.11991-0.8283-0.29715-1.2168-0.5293s-0.75718-0.51923-1.0957-0.86328c-0.33852-0.34405-0.64701-0.7436-0.91601-1.1992-0.28188-0.47725-0.50632-1.0678-0.67969-1.7383s-0.29458-1.4225-0.36719-2.2227c-0.0726-0.80019-0.0966-1.6493-0.0762-2.5156s0.0857-1.7502 0.19141-2.6191c0.10572-0.86891 0.25227-1.7214 0.43555-2.5293 0.18327-0.80792 0.40316-1.5705 0.65625-2.2539 0.25308-0.68338 0.53835-1.2879 0.85351-1.7832s0.6598-0.88137 1.0293-1.125c0.316-0.20837 0.64455-0.3715 0.98047-0.49219 0.33591-0.12068 0.67979-0.19965 1.0254-0.23633zm-15.619 7.0859c1.4257 0.0628 2.7577 0.21638 3.7949 0.45313 0.51862 0.11837 0.9635 0.25751 1.3086 0.41601 0.3451 0.1585 0.59031 0.33683 0.71094 0.53321 0.024 0.039 0.16931 2.4229 0.32031 5.2969 0.0554 1.0529 0.17896 2.043 0.36524 2.9668 0.18627 0.92385 0.43477 1.7817 0.73437 2.5762s0.65151 1.5247 1.0469 2.1894c0.39536 0.66472 0.83307 1.2642 1.3066 1.7988 0.47356 0.53467 0.98338 1.0039 1.5176 1.4082 0.53419 0.4043 1.0946 0.74399 1.6719 1.0176 0.57727 0.2736 1.1707 0.48243 1.7734 0.625 0.60276 0.14258 1.2135 0.21924 1.8242 0.23047 0.6107 0.0112 1.2212-0.0436 1.8223-0.16406 0.60107-0.12043 1.1937-0.30618 1.7676-0.55859 0.57388-0.25242 1.1291-0.57231 1.6582-0.95704 0.52912-0.38473 1.0313-0.8342 1.498-1.3516s0.89827-1.1016 1.2852-1.752 0.7301-1.3668 1.0195-2.1504 0.52481-1.6355 0.69922-2.5527c0.1744-0.9172 0.28631-1.9 0.32812-2.9512 0.0678-1.705 0.12802-2.9948 0.24805-3.9707 0.06-0.48797 0.13488-0.89863 0.23437-1.2422 0.0995-0.34355 0.22235-0.62133 0.37891-0.8457 0.15656-0.22438 0.34689-0.39496 0.57812-0.52539 0.23124-0.13043 0.50461-0.21953 0.82813-0.28125 0.64703-0.12344 1.4954-0.13477 2.6172-0.13477 1.0515 0 1.8468 9e-3 2.4512 0.11328 0.30217 0.0523 0.5565 0.12907 0.77148 0.24024s0.39097 0.25542 0.53516 0.44726c0.14419 0.19185 0.25591 0.43029 0.3457 0.72461 0.0898 0.29433 0.15719 0.64584 0.20899 1.0645 0.10359 0.83723 0.14726 1.9449 0.19726 3.4102 0.0378 1.1079 0.1516 2.1468 0.33203 3.1172 0.18044 0.97034 0.42864 1.8724 0.73243 2.7051 0.30378 0.83262 0.66446 1.5962 1.0723 2.291 0.40781 0.6948 0.86298 1.3201 1.3555 1.877 0.49249 0.55684 1.0222 1.0441 1.5801 1.4629 0.55784 0.41877 1.1422 0.76823 1.7461 1.0488 0.60387 0.2806 1.2269 0.49248 1.8574 0.63477 0.63056 0.14229 1.2684 0.21488 1.9062 0.21875 0.63791 4e-3 1.2764-0.0607 1.9024-0.19531 0.62592-0.13466 1.2394-0.33802 1.834-0.61133 0.59462-0.27331 1.1689-0.61722 1.7129-1.0293s1.0592-0.89239 1.5332-1.4434c0.47399-0.55096 0.90828-1.1714 1.293-1.8613 0.38469-0.68998 0.71811-1.4502 0.99415-2.2793 0.27603-0.82909 0.49451-1.727 0.64257-2.6953 0.14806-0.96834 0.22582-2.0076 0.22657-3.1152 1e-3 -1.3728 0.0313-2.441 0.14062-3.2715 0.0547-0.41522 0.12983-0.76962 0.23047-1.0742s0.22753-0.55891 0.38672-0.76953c0.15919-0.21063 0.34975-0.37843 0.58008-0.51172 0.23032-0.13329 0.5004-0.2321 0.81445-0.30469 0.62809-0.14519 1.4361-0.18525 2.4746-0.1875 1.057-2e-3 1.8553 4e-3 2.4629 0.10742 0.3038 0.0517 0.56067 0.12689 0.77734 0.23828 0.21667 0.1114 0.39272 0.25789 0.53907 0.45118 0.14634 0.19328 0.26264 0.4331 0.35546 0.73046 0.0928 0.29737 0.16264 0.65254 0.21875 1.0762 0.11224 0.84726 0.16813 1.9696 0.23438 3.4551 0.0472 1.0589 0.13587 2.0466 0.26758 2.9668s0.3058 1.7727 0.52539 2.5586c0.21958 0.78592 0.48404 1.506 0.79492 2.1621 0.31088 0.65614 0.66863 1.2485 1.0742 1.7793s0.85956 1.0002 1.3633 1.4102 1.0568 0.76114 1.6621 1.0547c0.60527 0.29354 1.2624 0.52933 1.9727 0.71093 0.71024 0.18161 1.4743 0.30869 2.293 0.38282 0.80288 0.0729 1.566 0.0662 2.2871-0.0176 0.72115-0.0838 1.4002-0.24494 2.0371-0.48242 0.63689-0.23749 1.2311-0.55121 1.7812-0.93946 0.55012-0.38824 1.0568-0.85065 1.5176-1.3867 0.46081-0.53606 0.87515-1.1452 1.2441-1.8262s0.69216-1.433 0.9668-2.2559 0.50192-1.7178 0.67969-2.6797c0.17777-0.96183 0.30639-1.992 0.38476-3.0898 0.1215-1.7038 0.18389-2.9606 0.35156-3.8867 0.0838-0.46306 0.19276-0.84294 0.34961-1.1543 0.15685-0.31136 0.36197-0.55407 0.63282-0.74219 0.27084-0.18813 0.60738-0.32266 1.0332-0.41602 0.42582-0.0934 0.94073-0.14676 1.5625-0.17383 1.2436-0.0541 2.9201-3e-3 5.1934 0.0371 1.3544 0.0239 2.6261 0.10145 3.8203 0.23633s2.3111 0.32738 3.3555 0.58008c1.0444 0.25269 2.0149 0.56603 2.9199 0.94336s1.7436 0.81739 2.5195 1.3262c0.77597 0.50878 1.4892 1.0854 2.1465 1.7324 0.65733 0.64705 1.2595 1.3641 1.8086 2.1562 0.54909 0.79213 1.0468 1.6595 1.498 2.6035 0.45122 0.94403 0.855 1.9656 1.2188 3.0684 0.12862 0.39 0.24239 2.3621 0.3418 5.5234 0.0994 3.1614 0.18452 7.5117 0.2539 12.656 0.13877 10.289 0.21666 23.756 0.23047 37.248 0.0138 13.492-0.0367 27.011-0.1543 37.4-0.0588 5.1948-0.13369 9.607-0.22656 12.844-0.0929 3.2368-0.20428 5.2966-0.33203 5.7871-0.16238 0.623-0.3654 1.2482-0.60547 1.8691s-0.5158 1.2389-0.82422 1.8457c-0.30842 0.6068-0.65016 1.2027-1.0176 1.7832-0.36741 0.58047-0.76067 1.1455-1.1777 1.6875s-0.8571 1.0614-1.3144 1.5527c-0.45736 0.49131-0.93163 0.95432-1.4199 1.3828-0.48829 0.42849-0.99011 0.82226-1.5 1.1758-0.50988 0.35351-1.0286 0.66722-1.5508 0.93359-0.5045 0.25738-0.92601 0.48201-1.3887 0.67774-0.46266 0.19572-0.96585 0.36194-1.6328 0.5039s-1.4978 0.25939-2.6152 0.35547c-1.1174 0.0961-2.522 0.17042-4.3359 0.22852-3.6279 0.11618-8.8941 0.16423-16.785 0.17578-7.891 0.0115-18.406-0.013-32.529-0.043l-52.49-0.11133-2.7031-1.2812c-0.5935-0.28112-1.1744-0.59576-1.7402-0.94336s-1.1159-0.72698-1.6484-1.1348c-0.53258-0.40779-1.0472-0.84496-1.541-1.3066-0.49379-0.46168-0.96658-0.94775-1.416-1.457s-0.87585-1.0412-1.2754-1.5918c-0.39953-0.55059-0.77311-1.1214-1.1172-1.707-0.34407-0.58561-0.65834-1.1865-0.9414-1.8008-0.28307-0.61432-0.5335-1.2422-0.75-1.8789-0.12738-0.3745-0.24908-2.3082-0.36133-5.418-0.11225-3.1098-0.21603-7.3943-0.30859-12.467-0.18513-10.145-0.3253-23.442-0.4043-36.803-0.079-13.36-0.0968-26.784-0.0332-37.18 0.0318-5.1978 0.0839-9.6397 0.1582-12.938s0.17159-5.4529 0.29297-6.0781c0.15312-0.78825 0.35523-1.5565 0.60547-2.3027s0.54714-1.4704 0.88867-2.168c0.34152-0.69757 0.72732-1.3676 1.1543-2.0098 0.42698-0.64221 0.89575-1.2558 1.4024-1.8359 0.50659-0.58016 1.0524-1.1272 1.6328-1.6387 0.58038-0.51143 1.1954-0.98782 1.8438-1.4238 0.64834-0.43601 1.3286-0.83164 2.0391-1.1856s1.452-0.66651 2.2188-0.93164c0.49013-0.16962 1.0575-0.31173 1.6797-0.42773s1.2986-0.20491 2.002-0.26953c1.4068-0.12925 2.9258-0.15846 4.3516-0.0957z" fill="#808080" stroke="#000" stroke-linecap="round" stroke-linejoin="round"/>
<path d="m204 92.947c-14.245-0.016-27.429 0.0055-37.193 0.05078-9.7646 0.04525-16.109 0.11422-16.68 0.19922-0.99262 0.14756-1.9795 0.34318-2.957 0.58398s-1.9463 0.52802-2.9043 0.85742c-0.958 0.3294-1.906 0.70186-2.8398 1.1152-0.93389 0.41337-1.8545 0.86667-2.7598 1.3594-0.90527 0.4927-1.7939 1.0244-2.666 1.5918s-1.7281 1.1711-2.5625 1.8086c-0.83443 0.63746-1.6492 1.3088-2.4414 2.0117-0.79222 0.70289-1.5611 1.4375-2.3066 2.2012s-1.4659 1.5571-2.1602 2.377c-0.69425 0.81984-1.3635 1.6657-2.002 2.5371-0.63846 0.87137-1.2461 1.7673-1.8242 2.6856-0.57816 0.91826-1.1254 1.8598-1.6387 2.8203-0.51332 0.96051-0.99353 1.9394-1.4375 2.9375-0.44397 0.99813-0.85256 2.0138-1.2226 3.0449s-0.70246 2.0792-0.99414 3.1387c-0.29169 1.0595-0.54321 2.1317-0.75196 3.2148-0.1 0.51888-0.19574 2.6403-0.28711 5.9648-0.0914 3.3245-0.17757 7.8522-0.25586 13.184-0.15656 10.663-0.28187 24.54-0.35937 38.438s-0.1075 27.817-0.0703 38.561c0.0186 5.3716 0.0535 9.9493 0.10742 13.334 0.0539 3.3847 0.12695 5.5767 0.2207 6.1758 0.15369 0.98219 0.35139 1.956 0.58985 2.9219 0.23845 0.96591 0.51703 1.9239 0.83593 2.8691 0.31891 0.94521 0.67723 1.8787 1.0723 2.7988 0.39504 0.92009 0.82805 1.8262 1.2949 2.7168 0.46687 0.89057 0.96758 1.7645 1.502 2.6211 0.53438 0.85661 1.1016 1.6954 1.6992 2.5137 0.59758 0.81825 1.2264 1.6171 1.8828 2.3926 0.65645 0.77546 1.3417 1.5276 2.0527 2.2559 0.71103 0.72826 1.4477 1.4327 2.209 2.1094 0.76129 0.67665 1.5463 1.3267 2.3535 1.9473s1.6375 1.2113 2.4863 1.7715c0.84886 0.56016 1.7173 1.0887 2.6035 1.584 0.88618 0.49528 1.7898 0.95681 2.709 1.3828 0.91918 0.42599 1.8529 0.81763 2.8008 1.1699s1.9086 0.66529 2.8809 0.93945c0.97225 0.27417 1.9569 0.5076 2.9492 0.69922 0.561 0.10838 2.5749 0.20286 5.6836 0.28321 3.1087 0.0803 7.3116 0.14664 12.246 0.19921 9.8689 0.10514 22.668 0.15679 35.508 0.15235 12.84-4e-3 25.72-0.0638 35.754-0.17578 5.017-0.056 9.3221-0.12649 12.555-0.20899s5.393-0.1764 6.1191-0.28515c1.0634-0.15932 2.1072-0.3563 3.1309-0.58789 1.0237-0.2316 2.0269-0.49803 3.0098-0.80079 0.98284-0.30275 1.9439-0.64088 2.8848-1.0137 0.94087-0.37279 1.862-0.78096 2.7598-1.2226 0.89774-0.44169 1.7735-0.91827 2.627-1.4277 0.85349-0.50946 1.6841-1.0508 2.4922-1.627 0.80808-0.57611 1.592-1.1865 2.3535-1.8281 0.76155-0.64162 1.501-1.3155 2.2148-2.0215 0.71386-0.70602 1.4033-1.4436 2.0684-2.2129 0.66503-0.76928 1.3048-1.5709 1.9199-2.4024 0.61507-0.8314 1.2056-1.6935 1.7695-2.5859s1.1016-1.8153 1.6133-2.7676c0.51172-0.95229 0.99675-1.9323 1.4551-2.9434 0.45832-1.011 0.88917-2.0524 1.293-3.1211 0.40379-1.0686 0.78078-2.1659 1.1289-3.291 0.34813-1.1251 0.66768-2.2785 0.95899-3.459 0.10937-0.44332 0.20859-1.2676 0.29883-2.4277 0.0902-1.1601 0.17236-2.6547 0.24414-4.4356 0.14356-3.5617 0.25041-8.2698 0.32422-13.738 0.0738-5.4685 0.11356-11.698 0.12304-18.305 9e-3 -6.607-0.0111-13.591-0.0605-20.568-0.0494-6.9773-0.12761-13.948-0.23047-20.527-0.10286-6.5792-0.22998-12.767-0.38086-18.18s-0.32411-10.051-0.51758-13.529c-0.0967-1.7392-0.19832-3.1893-0.30469-4.3008-0.10636-1.1115-0.21867-1.8857-0.33398-2.2734-0.5565-1.8718-1.2176-3.6864-1.9766-5.4394-0.75899-1.753-1.6162-3.4437-2.5625-5.0625-0.94632-1.6188-1.9811-3.1657-3.0996-4.6348s-2.3202-2.8602-3.5957-4.1641c-1.2755-1.3039-2.6256-2.5213-4.043-3.6445-1.4174-1.1232-2.9012-2.1511-4.4453-3.0781-0.77206-0.46352-1.5604-0.90288-2.3613-1.3145-0.8009-0.41157-1.6155-0.79661-2.4434-1.1543-0.82785-0.35769-1.6686-0.68836-2.5215-0.99023s-1.7177-0.57424-2.5938-0.81836l-3.1992-0.89258zm0 1.2031 52.199 0.06836 2.9394 0.92578c1.1301 0.35556 2.2318 0.74359 3.3027 1.166 1.0709 0.42242 2.1122 0.87924 3.123 1.3672 1.0108 0.48795 1.9898 1.0084 2.9395 1.5605 0.94969 0.55213 1.8702 1.135 2.7578 1.75s1.7438 1.261 2.5684 1.9375c0.82451 0.67648 1.6165 1.3844 2.377 2.1211 0.76044 0.73664 1.4882 1.5014 2.1836 2.2969 0.69537 0.79547 1.359 1.6217 1.9883 2.4746 0.62932 0.85295 1.2248 1.7335 1.7871 2.6426 0.56229 0.9091 1.0897 1.8466 1.584 2.8106 0.49427 0.9639 0.95561 1.9533 1.3809 2.9707 0.42525 1.0174 0.81467 2.0614 1.1699 3.1309s0.67667 2.1649 0.96094 3.2852c0.28426 1.1203 0.53185 2.2658 0.74414 3.4356s0.38802 2.3642 0.52734 3.582c0.13933 1.2178 0.24322 2.46 0.3086 3.7246 0.0901 1.7442 0.16064 4.6614 0.21484 8.4394 0.0542 3.7781 0.0916 8.4161 0.11328 13.6 0.0434 10.367 0.0252 22.917-0.041 35.135-0.0663 12.218-0.18146 24.106-0.33008 33.148-0.0743 4.521-0.1563 8.3309-0.2461 11.115s-0.18718 4.5436-0.28906 4.9629c-0.49725 2.0468-1.0834 4.0134-1.7559 5.8965-0.67244 1.8831-1.4315 3.682-2.2715 5.3926-0.83997 1.7106-1.7619 3.3323-2.7617 4.8613-0.99982 1.5291-2.0765 2.966-3.2285 4.3047-0.576 0.66934-1.1706 1.3135-1.7832 1.9336-0.61261 0.62008-1.2443 1.2155-1.8926 1.7852-0.64825 0.56969-1.3132 1.1146-1.9961 1.6328-0.68294 0.5182-1.3829 1.009-2.0996 1.4746-0.71667 0.46559-1.4498 0.90455-2.1992 1.3164s-1.5156 0.79727-2.2969 1.1543c-0.78126 0.35702-1.5785 0.68721-2.3906 0.98828-0.81211 0.30106-1.6385 0.5724-2.4805 0.8164-0.78162 0.2265-1.5134 0.42612-2.2969 0.60157-0.78353 0.17544-1.6194 0.32674-2.6133 0.45703-0.99392 0.13029-2.1458 0.241-3.5586 0.33203-1.4128 0.091-3.0868 0.16304-5.127 0.2207-4.0803 0.11531-9.6242 0.1703-17.465 0.1875-7.8407 0.0172-17.977-3e-3 -31.246-0.0371l-49.801-0.12695-3.1992-0.90039c-0.8875-0.24975-1.7659-0.53361-2.6328-0.84961-0.86694-0.31601-1.7234-0.66434-2.5664-1.043s-1.6726-0.78699-2.4883-1.2246-1.6173-0.9035-2.4023-1.3965c-0.78508-0.49299-1.5536-1.0139-2.3047-1.5586s-1.4855-1.1142-2.1992-1.707c-0.71367-0.59282-1.4072-1.2084-2.0801-1.8457-0.67292-0.6373-1.3243-1.2965-1.9531-1.9746s-1.2351-1.3745-1.8164-2.0898c-0.58133-0.71535-1.1375-1.4483-1.668-2.1973-0.53048-0.74893-1.0354-1.5141-1.5117-2.293-0.47627-0.77888-0.92504-1.5718-1.3438-2.377-0.4187-0.80521-0.8063-1.6233-1.1641-2.4512-0.35776-0.8279-0.68506-1.6667-0.97851-2.5137-0.29346-0.84695-0.55351-1.7021-0.7793-2.5644s-0.41752-1.7313-0.57227-2.6055c-0.12075-0.682-0.21576-2.9412-0.28906-6.3828-0.0733-3.4416-0.12379-8.0665-0.1543-13.477-0.061-10.82-0.0412-24.786 0.041-38.732 0.0822-13.947 0.22595-27.874 0.41406-38.617 0.0941-5.3717 0.19896-9.9479 0.3125-13.332 0.11355-3.3842 0.23491-5.5763 0.36328-6.1816 0.21194-1.0002 0.46341-1.9923 0.75196-2.9727 0.28854-0.9804 0.61571-1.9482 0.97656-2.9043 0.36085-0.95614 0.75671-1.9006 1.1856-2.8281 0.42883-0.9275 0.89029-1.838 1.3828-2.7324 0.49251-0.89446 1.0145-1.7719 1.5664-2.6289 0.55188-0.85702 1.1333-1.6946 1.7402-2.5098 0.60694-0.81518 1.2408-1.608 1.8984-2.377 0.65768-0.76895 1.3388-1.5141 2.043-2.2324 0.70412-0.71833 1.4315-1.4109 2.1777-2.0742 0.74625-0.66331 1.5109-1.2965 2.2949-1.9004 0.78407-0.60389 1.5867-1.1767 2.4043-1.7168 0.81757-0.54007 1.6513-1.0477 2.498-1.5195 0.84676-0.47186 1.7065-0.90934 2.5781-1.3086 0.87165-0.39926 1.7543-0.75978 2.6465-1.082 0.89222-0.32226 1.7946-0.60485 2.7031-0.8457 0.90848-0.24086 1.8237-0.44064 2.7441-0.5957 0.631-0.106 6.6731-0.19114 16.334-0.24414 9.6609-0.053 22.94-0.07469 38.047-0.05469z" fill="#fff" fill-opacity=".85324" stroke="#051023" stroke-linecap="round" stroke-linejoin="round"/>
<path d="m163.56 65.305c-5.9925 0.01932-11.167 0.0535-15.102 0.10352-3.9346 0.05002-6.6282 0.11692-7.6562 0.20117-1.9655 0.16106-3.8996 0.40606-5.7988 0.73047s-3.7644 0.72695-5.5898 1.207c-1.8254 0.48008-3.6114 1.038-5.3555 1.666-1.7441 0.62806-3.4463 1.3274-5.1016 2.0957s-3.2634 1.6049-4.8223 2.5059c-1.5589 0.90095-3.0684 1.8667-4.5234 2.8926-1.455 1.0259-2.8556 2.1108-4.1992 3.2539-1.3436 1.1431-2.6307 2.3431-3.8555 3.5957-1.2248 1.2526-2.388 2.5596-3.4863 3.9141-1.0983 1.3545-2.1313 2.7564-3.0957 4.2051-0.96441 1.4487-1.8606 2.9434-2.6836 4.4785s-1.5721 3.1107-2.2461 4.7246c-0.674 1.6139-1.2715 3.2661-1.7891 4.9512-0.51753 1.685-0.95507 3.4039-1.3086 5.1523s-0.62461 3.5259-0.80664 5.3301c-0.18202 1.8042-0.2763 3.636-0.27929 5.4883-2e-3 1.0016 0.0183 1.9303 0.0644 2.8047 0.0462 0.87437 0.11949 1.6933 0.22656 2.4746s0.24662 1.5256 0.42774 2.248c0.18111 0.7224 0.40359 1.4234 0.67187 2.1211s0.58259 1.3905 0.95117 2.0977c0.36858 0.70715 0.79143 1.4289 1.2734 2.1797 0.96401 1.5016 2.1676 3.1246 3.6641 5.0059 1.339 1.6828 2.5732 3.3441 3.7148 5.0059 1.1416 1.6617 2.1916 3.3242 3.1582 5.0039 0.96662 1.6797 1.85 3.3767 2.6641 5.1133s1.5582 3.5112 2.2422 5.3438c0.56537 1.5144 1.0792 3.0382 1.543 4.5684s0.87768 3.068 1.2402 4.6113 0.67384 3.0925 0.93555 4.6465 0.47351 3.1118 0.63476 4.6738c0.16126 1.5621 0.2728 3.1277 0.33399 4.6953 0.0612 1.5676 0.0717 3.1383 0.0332 4.709-0.0385 1.5706-0.12587 3.1417-0.26367 4.7129-0.1378 1.5711-0.32578 3.1418-0.5625 4.7109-0.23672 1.5691-0.52217 3.1367-0.85742 4.7012-0.33525 1.5645-0.72089 3.1262-1.1543 4.6836-0.4334 1.5574-0.91414 3.1105-1.4453 4.6582s-1.1117 3.0895-1.7402 4.625c-0.62855 1.5355-1.3057 3.0652-2.0312 4.5859-0.72555 1.5208-1.5001 3.0336-2.3223 4.5371-0.82217 1.5035-1.6929 2.9968-2.6113 4.4805s-1.8842 2.9567-2.8984 4.418c-1.8062 2.6022-3.2018 4.6821-4.2539 6.459-0.52608 0.88845-0.96664 1.7001-1.3301 2.4648-0.36344 0.76475-0.64913 1.4816-0.86719 2.1777s-0.36709 1.372-0.45703 2.0547c-0.0899 0.68266-0.12053 1.3734-0.0996 2.0976 0.0209 0.72426 0.0925 1.4818 0.20703 2.3027 0.11453 0.82095 0.27202 1.705 0.46289 2.6777 0.258 1.3149 0.57322 2.6189 0.94336 3.9102s0.79466 2.5697 1.2715 3.832c0.47682 1.2624 1.0059 2.5082 1.584 3.7363 0.57804 1.2281 1.2051 2.4384 1.8789 3.627 0.67379 1.1886 1.3941 2.3563 2.1582 3.5s1.573 2.264 2.4219 3.3574c0.84889 1.0934 1.7378 2.1594 2.666 3.1973s1.8943 2.0464 2.8965 3.0234c1.0022 0.97701 2.0407 1.9232 3.1113 2.834 1.0706 0.91081 2.1731 1.7877 3.3066 2.627 1.1336 0.83928 2.2992 1.6399 3.4902 2.4024s2.4092 1.4858 3.6523 2.166c1.2431 0.68023 2.5111 1.3175 3.8008 1.9102 1.2897 0.5927 2.6008 1.1408 3.9316 1.6406s2.6804 0.95183 4.0469 1.3535 2.7499 0.75259 4.1465 1.0508c0.633 0.13519 1.678 0.26344 3.0859 0.38281 1.408 0.11938 3.1777 0.23056 5.2578 0.33399 4.1602 0.20685 9.5627 0.38114 15.795 0.52344 6.2322 0.14229 13.295 0.25337 20.777 0.33007s15.383 0.11885 23.293 0.12891c7.9096 0.0101 15.827-0.0127 23.342-0.0703s14.626-0.14906 20.924-0.27539c6.2979-0.12633 11.782-0.2883 16.041-0.48438 2.1293-0.098 3.9526-0.20464 5.418-0.32031 1.4654-0.11567 2.5729-0.23961 3.2715-0.37305 1.4418-0.27543 2.866-0.60374 4.2695-0.98437 1.4035-0.38064 2.7873-0.81309 4.1484-1.2949s2.6989-1.0128 4.0137-1.5918 2.6049-1.2067 3.8691-1.8789c1.2643-0.67223 2.5031-1.3909 3.7129-2.1523 1.2098-0.76143 2.3918-1.5655 3.543-2.4121 1.1512-0.84664 2.2709-1.7343 3.3594-2.6621 1.0885-0.92784 2.1442-1.8953 3.166-2.9004 1.0218-1.005 2.01-2.0487 2.9609-3.127 0.95097-1.0783 1.8661-2.1924 2.7422-3.3398 0.87611-1.1475 1.7126-2.3283 2.5098-3.541 0.79719-1.2127 1.5553-2.4566 2.2695-3.7305 0.7142-1.2739 1.3846-2.5771 2.0117-3.9082 0.62714-1.3311 1.2101-2.6899 1.7461-4.0742 0.53601-1.3843 1.026-2.795 1.4668-4.2285 0.44082-1.4335 0.83227-2.8904 1.1738-4.3691l0.87696-3.7988 0.13671-61.801c0.0403-18.2 0.0693-31.864 0.0391-42.277-0.0151-5.2069-0.0445-9.6012-0.0957-13.344s-0.12495-6.8339-0.22461-9.4336c-0.0996-2.5997-0.22632-4.7079-0.38671-6.4863-0.1604-1.7784-0.35445-3.2273-0.5879-4.5059-0.23344-1.2786-0.5054-2.3879-0.82421-3.4883-0.31882-1.1004-0.68311-2.1919-1.0996-3.4355-0.4295-1.2824-0.90019-2.5397-1.4102-3.7734s-1.0606-2.444-1.6484-3.627c-0.58787-1.1829-1.2138-2.3388-1.877-3.4688-0.6632-1.13-1.3637-2.2337-2.0996-3.3086-0.73595-1.0749-1.5064-2.121-2.3125-3.1387s-1.6478-2.0066-2.5215-2.9648c-0.87374-0.95826-1.78-1.8865-2.7188-2.7832-0.93878-0.89674-1.9089-1.7626-2.9102-2.5957-1.0012-0.83308-2.0346-1.6331-3.0957-2.4004-1.0611-0.76728-2.1511-1.5018-3.2695-2.2012-1.1184-0.69934-2.2643-1.3629-3.4375-1.9922-1.1732-0.62926-2.3743-1.2242-3.5996-1.7812-1.2254-0.55704-2.475-1.0759-3.75-1.5586-1.275-0.48267-2.5745-0.92781-3.8965-1.334-1.322-0.40617-2.6668-0.77403-4.0332-1.1016s-2.7538-0.61458-4.1621-0.86133c-0.51775-0.09062-2.7645-0.17863-6.3164-0.25977-3.5519-0.08114-8.4091-0.15649-14.146-0.22461-11.475-0.13623-26.473-0.24175-41.598-0.30469-15.125-0.06294-30.376-0.08356-42.361-0.04492zm40.441 27.643 51.801 0.05859 3.1992 0.89258c0.87606 0.24412 1.7408 0.51648 2.5938 0.81836s1.6936 0.63254 2.5215 0.99023c0.82786 0.35769 1.6425 0.74273 2.4434 1.1543 0.80091 0.41157 1.5893 0.85094 2.3613 1.3145 1.5441 0.92703 3.0279 1.9549 4.4453 3.0781 1.4174 1.1232 2.7674 2.3407 4.043 3.6445 1.2755 1.3039 2.4772 2.695 3.5957 4.1641s2.1533 3.016 3.0996 4.6348c0.94631 1.6188 1.8035 3.3095 2.5625 5.0625 0.75898 1.753 1.4201 3.5677 1.9766 5.4394 0.11531 0.38775 0.22762 1.162 0.33398 2.2734 0.10637 1.1115 0.20795 2.5616 0.30469 4.3008 0.19347 3.4784 0.3667 8.1164 0.51758 13.529s0.278 11.6 0.38086 18.18c0.10286 6.5792 0.18106 13.55 0.23047 20.527 0.0494 6.9773 0.07 13.961 0.0605 20.568-9e-3 6.607-0.0492 12.836-0.12304 18.305-0.0738 5.4685-0.18066 10.177-0.32422 13.738-0.0718 1.7809-0.15391 3.2754-0.24414 4.4356-0.0902 1.1601-0.18946 1.9844-0.29883 2.4277-0.29131 1.1805-0.61086 2.3338-0.95899 3.459-0.34812 1.1251-0.72511 2.2224-1.1289 3.291-0.4038 1.0686-0.83465 2.1101-1.293 3.1211-0.45833 1.011-0.94336 1.9911-1.4551 2.9434-0.51171 0.95228-1.0493 1.8752-1.6133 2.7676s-1.1545 1.7545-1.7695 2.5859c-0.61507 0.83141-1.2549 1.6331-1.9199 2.4024-0.66504 0.76927-1.3545 1.5069-2.0684 2.2129-0.71386 0.70601-1.4533 1.3799-2.2148 2.0215-0.76154 0.64163-1.5454 1.252-2.3535 1.8281-0.80809 0.57611-1.6387 1.1175-2.4922 1.627-0.85348 0.50947-1.7292 0.98605-2.627 1.4277-0.89775 0.44169-1.8189 0.84986-2.7598 1.2226-0.94086 0.37279-1.9019 0.71092-2.8848 1.0137-0.98285 0.30276-1.9861 0.56919-3.0098 0.80079-1.0237 0.23159-2.0675 0.42857-3.1309 0.58789-0.72612 0.10875-2.8866 0.20265-6.1191 0.28515s-7.5377 0.15299-12.555 0.20899c-10.034 0.11198-22.914 0.17134-35.754 0.17578-12.84 4e-3 -25.639-0.0472-35.508-0.15235-4.9344-0.0526-9.1374-0.11887-12.246-0.19921-3.1087-0.0804-5.1226-0.17483-5.6836-0.28321-0.99231-0.19162-1.977-0.42505-2.9492-0.69922-0.97225-0.27416-1.933-0.58716-2.8809-0.93945s-1.8816-0.74393-2.8008-1.1699c-0.91918-0.426-1.8228-0.88753-2.709-1.3828-0.88618-0.49529-1.7546-1.0238-2.6035-1.584-0.84886-0.56015-1.6791-1.1509-2.4863-1.7715s-1.5922-1.2706-2.3535-1.9473c-0.76128-0.67664-1.498-1.3811-2.209-2.1094-0.71103-0.72827-1.3963-1.4804-2.0527-2.2559-0.65646-0.77547-1.2852-1.5743-1.8828-2.3926-0.59757-0.81825-1.1648-1.6571-1.6992-2.5137-0.53437-0.85662-1.0351-1.7305-1.502-2.6211-0.46687-0.89056-0.89988-1.7967-1.2949-2.7168-0.39504-0.9201-0.75336-1.8536-1.0723-2.7988-0.3189-0.94521-0.59748-1.9032-0.83593-2.8691-0.23846-0.96591-0.43616-1.9397-0.58985-2.9219-0.0937-0.59912-0.16676-2.7911-0.2207-6.1758-0.0539-3.3847-0.0888-7.9624-0.10742-13.334-0.0372-10.743-7e-3 -24.663 0.0703-38.561 0.0775-13.898 0.20281-27.775 0.35937-38.438 0.0783-5.3314 0.1645-9.8591 0.25586-13.184 0.0914-3.3245 0.18711-5.446 0.28711-5.9648 0.20875-1.0832 0.46027-2.1554 0.75196-3.2148 0.29168-1.0595 0.62405-2.1076 0.99414-3.1387s0.77868-2.0468 1.2226-3.0449c0.44397-0.99814 0.92418-1.977 1.4375-2.9375 0.51333-0.96052 1.0605-1.9021 1.6387-2.8203 0.57815-0.91826 1.1858-1.8142 1.8242-2.6856 0.63847-0.87137 1.3077-1.7173 2.002-2.5371 0.69424-0.81984 1.4146-1.6133 2.1602-2.377s1.5144-1.4983 2.3066-2.2012c0.79223-0.7029 1.607-1.3743 2.4414-2.0117 0.83443-0.63746 1.6904-1.2412 2.5625-1.8086s1.7608-1.0991 2.666-1.5918c0.90526-0.4927 1.8259-0.946 2.7598-1.3594 0.93389-0.41337 1.8818-0.78583 2.8398-1.1152 0.95799-0.3294 1.9267-0.61662 2.9043-0.85742s1.9644-0.43642 2.957-0.58398c0.5705-0.085 6.9151-0.15397 16.68-0.19922 9.7646-0.04525 22.948-0.06678 37.193-0.05078z" fill="#fff" fill-opacity=".85324" stroke="#000" stroke-linecap="round" stroke-linejoin="round"/>
<path d="m199.68 64.074c-14.033 0.0045-27.989 0.03658-38.795 0.0957-10.806 0.05913-18.461 0.14606-19.889 0.25781-1.9638 0.15369-3.8969 0.38759-5.7969 0.70117-1.9 0.31358-3.7669 0.70566-5.5957 1.1719-1.8288 0.46622-3.6208 1.0075-5.3711 1.6191s-3.4587 1.2933-5.123 2.043c-1.6644 0.74972-3.2844 1.5667-4.8555 2.4473-1.5711 0.88058-3.094 1.8259-4.5644 2.8301-1.4705 1.0042-2.8875 2.067-4.25 3.1875s-2.6708 2.2977-3.918 3.5273c-1.2472 1.2296-2.4341 2.5123-3.5586 3.8438s-2.1853 2.7126-3.1797 4.1387-1.9223 2.8968-2.7793 4.4102c-0.85696 1.5133-1.6433 3.0687-2.3555 4.6621-0.71218 1.5934-1.3501 3.2244-1.9102 4.8906-0.56004 1.6662-1.0428 3.3679-1.4434 5.0996-0.40053 1.7317-0.71946 3.4951-0.95313 5.2852-0.23366 1.79-0.38197 3.6062-0.4414 5.4473-0.0813 2.5118-0.0867 4.5743 0.043 6.373 0.0648 0.89939 0.16503 1.7317 0.30468 2.5234 0.13966 0.79175 0.31958 1.5422 0.54883 2.2734 0.22925 0.73119 0.50625 1.4444 0.83985 2.1621 0.33359 0.71769 0.72309 1.4402 1.1758 2.1914 0.45268 0.75127 0.97011 1.5314 1.5566 2.3633s1.2434 1.7162 1.9785 2.6758c1.2375 1.6152 2.3048 3.0398 3.248 4.3457 0.94325 1.3059 1.7627 2.492 2.502 3.627s1.3979 2.2196 2.0234 3.3223c0.6255 1.1026 1.2164 2.2229 1.8184 3.4316 0.741 1.4883 1.4256 3.0021 2.0547 4.5352s1.203 3.0867 1.7207 4.6582 0.97986 3.16 1.3867 4.7637c0.40686 1.6036 0.75815 3.2222 1.0547 4.8516 0.29653 1.6294 0.53787 3.2691 0.72461 4.918 0.18673 1.6488 0.31901 3.3068 0.39648 4.9688 0.0775 1.6619 0.10158 3.3274 0.0703 4.9961-0.0313 1.6687-0.11833 3.3406-0.25781 5.0098-0.13948 1.6692-0.33291 3.3367-0.58008 5s-0.54802 3.3216-0.90234 4.9726c-0.35433 1.651-0.7617 3.2953-1.2227 4.9277-0.46095 1.6325-0.97396 3.2537-1.541 4.8613-0.56706 1.6076-1.1887 3.201-1.8613 4.7773s-1.3962 3.135-2.1738 4.6738-1.608 3.0578-2.4902 4.5527c-0.8822 1.4949-1.8166 2.9655-2.8027 4.4102-2.284 3.346-3.995 5.8502-5.2715 7.8184-0.63822 0.98408-1.169 1.8357-1.6074 2.5898-0.43848 0.75416-0.7851 1.4111-1.0586 2.0117s-0.4739 1.1446-0.61719 1.668-0.2295 1.0263-0.27734 1.5488c-0.0957 1.045-0.0345 2.1643 0.043 3.6641 0.0745 1.4411 0.23047 2.8795 0.46289 4.3106 0.23242 1.4311 0.54154 2.8547 0.92383 4.2676 0.38228 1.4129 0.83723 2.8147 1.3613 4.2012 0.52409 1.3865 1.1175 2.7594 1.7754 4.1113 0.65785 1.3519 1.3805 2.683 2.1641 3.9922 0.78356 1.3092 1.6281 2.5953 2.5293 3.8535 0.90121 1.2582 1.8583 2.4885 2.8691 3.6875 1.0108 1.199 2.0751 2.3664 3.1875 3.498 1.1124 1.1317 2.2727 2.229 3.4785 3.2852 1.2058 1.0561 2.4568 2.0706 3.748 3.043 1.2913 0.97238 2.6235 1.9028 3.9922 2.7832 1.3687 0.88045 2.7729 1.7119 4.2109 2.4922s2.9089 1.5077 4.4082 2.1797 3.0276 1.2883 4.5801 1.8438c1.5525 0.55548 3.1289 1.0516 4.7266 1.4824s3.2168 0.79588 4.8516 1.0938l4.8008 0.875h62c29.299 0 44.857-0.01 53.586-0.10742 4.3644-0.0489 7.0216-0.12024 8.8359-0.22266 1.8143-0.10242 2.7848-0.23686 3.7773-0.41211 1.5666-0.27662 3.1096-0.60546 4.6289-0.98828 1.5193-0.38282 3.0141-0.81923 4.4824-1.3047 1.4683-0.48545 2.9107-1.0209 4.3242-1.6055 1.4135-0.58453 2.7993-1.2184 4.1543-1.8984 1.355-0.68006 2.6799-1.4057 3.9727-2.1777 1.2928-0.77203 2.5526-1.5888 3.7793-2.4492 1.2267-0.86045 2.4192-1.7656 3.5762-2.7109 1.157-0.94532 2.2798-1.9324 3.3633-2.959 1.0834-1.0266 2.1286-2.0929 3.1348-3.1973 1.0062-1.1044 1.9733-2.2452 2.8984-3.4238s1.808-2.3934 2.6484-3.6426 1.6368-2.5333 2.3887-3.8496c0.75187-1.3163 1.4596-2.6651 2.1191-4.0449 0.65959-1.3798 1.2724-2.7906 1.8359-4.2305s1.0772-2.91 1.541-4.4062 0.87803-3.0192 1.2383-4.5684l0.88281-3.8008 0.13281-61c0.0343-15.927 0.0509-28.351 0.0332-38.133s-0.0712-16.921-0.17383-22.275c-0.10263-5.3547-0.2561-8.9248-0.47656-11.57-0.11024-1.3227-0.23695-2.4152-0.38282-3.3828s-0.31047-1.8116-0.49609-2.6387c-0.38425-1.7122-0.82903-3.3857-1.334-5.0215-0.50495-1.6358-1.0697-3.233-1.6914-4.7891-0.62168-1.5561-1.3007-3.0718-2.0352-4.5449s-1.524-2.904-2.3672-4.291c-0.84318-1.387-1.7395-2.7298-2.6875-4.0273-0.94796-1.2976-1.9473-2.549-2.9961-3.7539-1.0488-1.2049-2.1474-2.3636-3.293-3.4727s-2.3378-2.1698-3.5762-3.1797c-1.2384-1.0099-2.5223-1.9695-3.8496-2.877-1.3273-0.90746-2.6992-1.7626-4.1113-2.5645-1.4122-0.80181-2.8644-1.5493-4.3574-2.2422s-3.0257-1.3313-4.5957-1.9121c-1.57-0.58078-3.1774-1.1049-4.8203-1.5703-1.6429-0.46539-3.3214-0.87199-5.0332-1.2188s-3.4576-0.63254-5.2344-0.85742c-1.7768-0.22488-3.586-0.38853-5.4238-0.48828-2.0385-0.11075-10.151-0.19202-21.262-0.24414-11.111-0.05212-25.221-0.07481-39.254-0.07031zm-36.125 1.2305c11.985-0.03864 27.237-0.01801 42.361 0.04492 15.125 0.06294 30.123 0.16845 41.598 0.30469 5.7374 0.06812 10.595 0.14347 14.146 0.22461 3.5519 0.08114 5.7987 0.16914 6.3164 0.25977 1.4083 0.24675 2.7957 0.5338 4.1621 0.86133s2.7112 0.69539 4.0332 1.1016c1.322 0.40617 2.6215 0.85131 3.8965 1.334 1.275 0.48267 2.5246 1.0016 3.75 1.5586 1.2254 0.55703 2.4264 1.152 3.5996 1.7812 1.1732 0.62926 2.3191 1.2929 3.4375 1.9922 1.1184 0.69934 2.2084 1.4339 3.2695 2.2012 1.0611 0.76728 2.0945 1.5673 3.0957 2.4004 1.0012 0.83308 1.9714 1.699 2.9102 2.5957 0.93877 0.89674 1.845 1.8249 2.7188 2.7832 0.87373 0.95826 1.7154 1.9472 2.5215 2.9648s1.5766 2.0638 2.3125 3.1387c0.73595 1.0749 1.4364 2.1786 2.0996 3.3086 0.66319 1.13 1.2891 2.2858 1.877 3.4688 0.58787 1.1829 1.1385 2.3932 1.6484 3.627 0.50997 1.2338 0.98066 2.491 1.4102 3.7734 0.4165 1.2436 0.78079 2.3352 1.0996 3.4356 0.31881 1.1004 0.59077 2.2097 0.82421 3.4883 0.23345 1.2786 0.4275 2.7275 0.5879 4.5059 0.16039 1.7784 0.28706 3.8866 0.38671 6.4863 0.0997 2.5997 0.17338 5.6911 0.22461 9.4336 0.0512 3.7425 0.0806 8.1369 0.0957 13.344 0.0303 10.414 1e-3 24.077-0.0391 42.277l-0.13671 61.801-0.87696 3.7988c-0.34156 1.4788-0.73301 2.9356-1.1738 4.3691-0.44081 1.4335-0.93078 2.8442-1.4668 4.2285-0.53601 1.3843-1.119 2.7431-1.7461 4.0742-0.62713 1.3311-1.2975 2.6343-2.0117 3.9082-0.71419 1.2739-1.4723 2.5178-2.2695 3.7305-0.79718 1.2127-1.6336 2.3936-2.5098 3.541-0.87611 1.1475-1.7912 2.2616-2.7422 3.3398-0.95097 1.0782-1.9392 2.1219-2.9609 3.127-1.0218 1.005-2.0775 1.9726-3.166 2.9004-1.0885 0.92784-2.2082 1.8155-3.3594 2.6621-1.1512 0.84663-2.3332 1.6507-3.543 2.4121-1.2098 0.76143-2.4486 1.4801-3.7129 2.1523-1.2643 0.67223-2.5544 1.2999-3.8691 1.8789s-2.6525 1.11-4.0137 1.5918-2.745 0.91428-4.1484 1.2949c-1.4035 0.38063-2.8278 0.70894-4.2695 0.98437-0.69862 0.13344-1.8061 0.25738-3.2715 0.37305-1.4654 0.11567-3.2886 0.22227-5.418 0.32031-4.2587 0.19608-9.7431 0.35805-16.041 0.48438-6.2979 0.12633-13.409 0.21777-20.924 0.27539-7.5148 0.0576-15.432 0.0804-23.342 0.0703-7.9096-0.0101-15.811-0.0522-23.293-0.12891-7.482-0.0767-14.545-0.18778-20.777-0.33007-6.2323-0.1423-11.635-0.31659-15.795-0.52344-2.0801-0.10343-3.8499-0.21461-5.2578-0.33399-1.408-0.11937-2.4529-0.24762-3.0859-0.38281-1.3966-0.29819-2.78-0.64909-4.1465-1.0508s-2.7161-0.85366-4.0469-1.3535-2.642-1.0479-3.9316-1.6406c-1.2897-0.5927-2.5577-1.2299-3.8008-1.9102-1.2431-0.68022-2.4613-1.4036-3.6523-2.166s-2.3567-1.5631-3.4902-2.4024c-1.1336-0.83927-2.236-1.7161-3.3066-2.627-1.0706-0.91081-2.1092-1.857-3.1113-2.834-1.0022-0.97702-1.9682-1.9856-2.8965-3.0234s-1.8171-2.1038-2.666-3.1973c-0.8489-1.0934-1.6578-2.2138-2.4219-3.3574s-1.4844-2.3114-2.1582-3.5c-0.67379-1.1886-1.3009-2.3988-1.8789-3.627-0.57804-1.2281-1.1072-2.474-1.584-3.7363-0.47683-1.2624-0.90135-2.5407-1.2715-3.832s-0.68536-2.5953-0.94336-3.9102c-0.19087-0.97275-0.34836-1.8568-0.46289-2.6777-0.11453-0.82096-0.18611-1.5785-0.20703-2.3027-0.0209-0.72425 0.01-1.415 0.0996-2.0976 0.0899-0.68266 0.23897-1.3585 0.45703-2.0547s0.50375-1.413 0.86719-2.1777c0.36344-0.76476 0.804-1.5764 1.3301-2.4648 1.0522-1.7769 2.4476-3.8567 4.2539-6.459 1.0142-1.4613 1.98-2.9343 2.8984-4.418s1.7892-2.977 2.6113-4.4805c0.82217-1.5035 1.5967-3.0163 2.3223-4.5371 0.72556-1.5208 1.4027-3.0504 2.0312-4.5859 0.62856-1.5355 1.2091-3.0773 1.7402-4.625s1.0119-3.1008 1.4453-4.6582c0.43341-1.5574 0.81905-3.1191 1.1543-4.6836 0.33525-1.5645 0.6207-3.1321 0.85742-4.7012 0.23672-1.5691 0.4247-3.1398 0.5625-4.7109 0.1378-1.5712 0.22517-3.1422 0.26367-4.7129 0.0385-1.5707 0.028-3.1414-0.0332-4.709s-0.17273-3.1332-0.33399-4.6953c-0.16125-1.5621-0.37305-3.1199-0.63476-4.6738s-0.573-3.1032-0.93555-4.6465-0.77646-3.0812-1.2402-4.6113-0.9776-3.0539-1.543-4.5684c-0.684-1.8325-1.4281-3.6071-2.2422-5.3438s-1.6974-3.4336-2.6641-5.1133c-0.96663-1.6797-2.0166-3.3422-3.1582-5.0039-1.1416-1.6617-2.3758-3.3231-3.7148-5.0059-1.4965-1.8812-2.7-3.5043-3.6641-5.0059-0.48201-0.75079-0.90486-1.4725-1.2734-2.1797-0.36858-0.70716-0.68289-1.4-0.95117-2.0977s-0.49076-1.3987-0.67187-2.1211c-0.18112-0.72241-0.32067-1.4668-0.42774-2.248s-0.1804-1.6002-0.22656-2.4746c-0.0462-0.87437-0.0661-1.8031-0.0644-2.8047 3e-3 -1.8522 0.0973-3.6841 0.27929-5.4883 0.18203-1.8042 0.45311-3.5816 0.80664-5.3301s0.79107-3.4673 1.3086-5.1523c0.51752-1.685 1.1151-3.3372 1.7891-4.9512 0.674-1.6139 1.4231-3.1895 2.2461-4.7246s1.7192-3.0299 2.6836-4.4785c0.9644-1.4487 1.9974-2.8506 3.0957-4.2051 1.0983-1.3545 2.2616-2.6614 3.4863-3.9141 1.2248-1.2526 2.5118-2.4526 3.8555-3.5957 1.3436-1.1431 2.7442-2.228 4.1992-3.2539 1.455-1.0259 2.9645-1.9916 4.5234-2.8926 1.5589-0.90095 3.167-1.7375 4.8223-2.5059s3.3575-1.4676 5.1016-2.0957c1.7441-0.62806 3.5301-1.1859 5.3555-1.666 1.8254-0.48008 3.6906-0.88262 5.5898-1.207s3.8333-0.56941 5.7988-0.73047c1.028-0.08425 3.7217-0.15115 7.6562-0.20117 3.9346-0.05002 9.109-0.0842 15.102-0.10352z" fill="#fff" fill-opacity=".85324" stroke="#000" stroke-linecap="round" stroke-linejoin="round"/>
<path d="m141.2 64.017c-31.421 2.459-55.144 25.849-56.095 55.306-0.325 10.047 0.565 12.884 6.446 20.561 4.95 6.461 7.185 9.893 9.593 14.728 11.856 23.813 9.354 53.762-6.425 76.877-9.136 13.384-9.099 13.302-8.789 19.301 1.192 23.057 23.113 45.359 49.27 50.125l4.8 0.875h62c58.599 0 62.23-0.041 66.2-0.742 25.065-4.426 44.321-22.672 50.085-47.458l0.884-3.8 0.132-61c0.137-63.708-0.01-71.383-1.495-78-6.148-27.395-28.001-45.215-57.406-46.811-8.154-0.443-113.49-0.409-119.2 0.038m126.98 1.711c22.533 3.948 39.87 18.373 46.742 38.892 3.332 9.949 3.341 10.169 3.18 82.97l-0.136 61.8-0.877 3.8c-5.465 23.66-23.895 41.788-46.963 46.195-11.178 2.135-127.08 1.988-137.21-0.175-22.346-4.771-41.178-23.131-45.306-44.169-1.527-7.782-0.887-9.825 6.338-20.234 16.228-23.381 20.212-49.786 11.166-74.017-2.736-7.33-6.423-13.737-11.779-20.468-5.986-7.525-7.292-10.919-7.279-18.932 0.048-29.636 23.492-53.614 54.94-56.191 8.224-0.674 123.04-0.196 127.18 0.529m-117.85 27.06c-15.882 2.361-30.127 16.953-33.467 34.284-0.8 4.151-1.395 110.86-0.645 115.66 2.459 15.715 16.044 29.629 31.921 32.695 4.488 0.867 102.06 0.833 107.86-0.037 17.014-2.549 29.02-14.423 33.681-33.311 1.75-7.093 1.007-112.08-0.838-118.28-4.452-14.974-15.626-26.396-29.643-30.302l-3.2-0.892-51.8-0.058c-28.49-0.032-52.733 0.08-53.874 0.25m109.01 1.946c18.081 5.689 28.656 20.022 29.702 40.256 0.721 13.954 0.238 103.05-0.577 106.4-3.978 16.374-13.685 27.654-27.157 31.558-6.253 1.812-9.231 1.896-62.307 1.761l-49.8-0.126-3.2-0.901c-14.2-3.996-25.984-16.705-28.46-30.692-0.966-5.456-0.339-111.88 0.688-116.72 3.391-16.004 16.864-29.748 31.591-32.229 1.262-0.212 24.168-0.338 54.381-0.298l52.2 0.068 2.939 0.925m-90.897 16.825c-2.956 1.949-4.297 12.968-2.042 16.786 2.152 3.645 6.842 3.725 9.061 0.155 1.416-2.277 1.643-11.615 0.349-14.29-1.511-3.12-4.84-4.318-7.368-2.651m30.725-0.381c-4.951 2.003-5.382 16.652-0.567 19.288 4.856 2.658 8.166-1.174 8.187-9.476 0.02-7.981-2.889-11.726-7.62-9.812m29.188 0.374c-4.065 2.479-4.352 16.466-0.387 18.884 5.131 3.128 8.632-0.645 8.632-9.304 0-8.631-3.373-12.551-8.245-9.58m-54.809 1.423c2.914 2.701 2.674 13.768-0.351 16.148-3.777 2.97-6.595-0.514-6.595-8.154 0-7.786 3.198-11.467 6.946-7.994m30.247 0.147c4.198 4.197 2.113 16.65-2.787 16.65-3.277 0-4.4-2.321-4.404-9.095-4e-3 -7.509 3.527-11.219 7.191-7.555m29.753-0.147c2.824 2.617 2.686 14.346-0.193 16.363-5.04 3.53-8.536-3.979-6.527-14.017 0.58-2.901 4.605-4.306 6.72-2.346m-86.751 5.735c-6.134 2.121-10.56 7.19-11.785 13.496-0.971 5.002-0.363 107.89 0.656 110.88 1.732 5.094 5.683 9.571 10.431 11.82l2.703 1.281 52.489 0.111c56.493 0.12 55.252 0.16 59.288-1.899 4.177-2.131 8.112-7.245 9.411-12.229 1.022-3.924 0.915-108.34-0.114-111.46-2.91-8.822-8.453-12.456-19.288-12.647-9.093-0.161-8.637-0.478-9.123 6.337-0.627 8.783-4.475 13.26-10.898 12.677-6.549-0.593-9.575-4.554-9.953-13.025-0.265-5.942-0.36-6.068-4.588-6.059-4.154 9e-3 -4.622 0.629-4.626 6.12-0.012 17.723-20.117 17.601-20.721-0.126-0.2-5.861-0.304-6-4.51-6-4.487 0-4.613 0.18-4.884 7-0.669 16.818-19.434 16.473-20.32-0.374-0.151-2.874-0.295-5.258-0.319-5.297-0.965-1.571-9.928-1.966-13.849-0.609m12.405 0.931c0.22 0.213 0.501 2.583 0.625 5.268 0.867 18.817 22.775 17.635 22.775-1.229 0-4.15 0.255-4.49 3.365-4.49 3.219 0 3.283 0.094 3.553 5.2 0.983 18.604 22.182 18.973 22.996 0.4 0.242-5.521 0.292-5.6 3.476-5.6 3.183 0 3.158-0.041 3.432 5.4 0.937 18.616 23.15 18.451 23.183-0.173 0.01-5.459-0.196-5.314 7.558-5.337 10.098-0.031 16.186 3.834 18.667 11.85 0.755 2.438 0.882 107.26 0.134 110.61-1.05 4.704-5.167 9.977-9.248 11.846-3.928 1.797-5.358 1.839-59.396 1.717l-51.162-0.116-3.042-1.504c-5.354-2.646-8.999-7.682-9.912-13.696-0.288-1.898-0.389-19.802-0.314-55.6l0.11-52.8 1.239-2.6c2.443-5.126 7.072-8.812 12.039-9.585 2.703-0.42 9.338-0.129 9.922 0.436m-82.017 26.682c-5.01 2.336-5.255 6.042-0.796 12.088 7.286 9.88 11.148 27.078 8.664 38.579-1.573 7.283-3.912 12.997-7.412 18.109-4.578 6.687-4.699 10.248-0.412 12.144 3.524 1.559 6.012 0.069 9.62-5.763 12.954-20.943 14.034-43.278 3.108-64.29-5.054-9.719-8.657-12.786-12.772-10.867m5.321 1.751c2.997 2.774 8.597 12.872 10.658 19.22 4.724 14.551 3.77 31.125-2.586 44.949-5.789 12.589-10.681 17.028-14.18 12.869-1.817-2.159-1.383-3.991 2.208-9.322 11.52-17.105 11.114-39.556-1.044-57.67-3.466-5.163-3.853-6.493-2.485-8.53 1.882-2.8 5.29-3.496 7.429-1.516m81.261 11.898c-4.932 1.495-5.953 7.91-1.702 10.696 1.784 1.17 77.313 1.324 79.936 0.163 4.461-1.973 4.504-8.452 0.07-10.466-1.77-0.803-75.723-1.175-78.304-0.393m77.821 1.386c3.444 1.439 3.444 7.025 0 8.464-2.028 0.847-76.34 0.849-78.368 1e-3 -3.621-1.513-3.681-6.617-0.099-8.383 1.84-0.907 76.307-0.984 78.467-0.082m-182.69 3.643c-3.556 2.417-3.725 6.394-0.443 10.42 5.225 6.41 5.075 15.521-0.387 23.494-3.813 5.566-1.554 11.131 4.288 10.57 7.212-0.693 12.936-19.915 9.526-31.986-2.969-10.509-8.325-15.664-12.984-12.498m5.163 0.96c9.42 5.744 9.918 33.117 0.749 41.168-5.148 4.519-9.646-1.823-5.542-7.814 5.316-7.759 5.634-16.9 0.821-23.612-2.441-3.405-2.684-3.913-2.686-5.627-5e-3 -3.838 3.53-6.022 6.658-4.115m99.54 22.8c-5.071 1.224-6.161 8.276-1.659 10.74 2.143 1.173 55.723 1.046 57.305-0.136 3.933-2.936 3.792-8.201-0.274-10.274-1.447-0.738-52.425-1.041-55.372-0.33m56.021 2.068c2.177 2.178 1.424 6.239-1.421 7.66-1.429 0.714-50.974 1.126-54.344 0.452-3.499-0.7-4.784-5.314-2.2-7.898 1.417-1.417 0.053-1.357 29.835-1.303l27.091 0.05 1.039 1.039m-57.407 27.062c-3.906 1.97-3.905 7.99 0 10.285 2.151 1.263 36.601 1.268 38.786 5e-3 3.916-2.263 4.069-7.897 0.278-10.209-1.873-1.142-36.817-1.215-39.064-0.081m39.418 1.818c2.03 2.36 1.548 5.753-1.032 7.262-1.343 0.786-2.098 0.824-18.6 0.931l-17.2 0.112-1.794-0.912c-3.306-1.681-3.686-6.09-0.684-7.936 1.229-0.756 1.99-0.782 19.813-0.681l18.535 0.105 0.962 1.119" fill-opacity=".92881" stroke="#050f20" stroke-linecap="round" stroke-linejoin="round"/>
</svg>
